/* XPM */
static char * addressbook_xpm[] = {
"48 48 271 2",
"  	c None",
". 	c #9F9F9F",
"+ 	c #CDCDCD",
"@ 	c #DDDDDD",
"# 	c #F5F5F5",
"$ 	c #FFFFFF",
"% 	c #B8B8B8",
"& 	c #F4F4F4",
"* 	c #ECECEC",
"= 	c #F8F8F8",
"- 	c #DEDEDE",
"; 	c #989898",
"> 	c #8A8A8A",
", 	c #818181",
"' 	c #AFAFAF",
") 	c #BABABA",
"! 	c #E2E2E2",
"~ 	c #959595",
"{ 	c #FCFCFC",
"] 	c #E0E0E0",
"^ 	c #AEAEAE",
"/ 	c #C6C6C6",
"( 	c #949494",
"_ 	c #B0B0B0",
": 	c #919191",
"< 	c #737373",
"[ 	c #999999",
"} 	c #CFCFCF",
"| 	c #8F8F8F",
"1 	c #858585",
"2 	c #9B9B9B",
"3 	c #EAEAEA",
"4 	c #E6E6E6",
"5 	c #BCBCBC",
"6 	c #D4D4D4",
"7 	c #EDEDED",
"8 	c #4E4E4E",
"9 	c #5A5A5A",
"0 	c #575757",
"a 	c #C8C8C8",
"b 	c #787878",
"c 	c #565656",
"d 	c #6C6C6C",
"e 	c #BEBEBE",
"f 	c #484848",
"g 	c #525252",
"h 	c #898989",
"i 	c #4B4B4B",
"j 	c #3C3C3C",
"k 	c #383838",
"l 	c #A0A0A0",
"m 	c #959696",
"n 	c #7C868B",
"o 	c #A0ADB3",
"p 	c #A7B4BA",
"q 	c #757E83",
"r 	c #4C4C4C",
"s 	c #404040",
"t 	c #2A2A2A",
"u 	c #1E1E1E",
"v 	c #313131",
"w 	c #788389",
"x 	c #B1BCC2",
"y 	c #E0E4E7",
"z 	c #D4DADD",
"A 	c #677075",
"B 	c #3D3D3D",
"C 	c #4D4D4D",
"D 	c #3F3F3F",
"E 	c #000000",
"F 	c #272727",
"G 	c #4D5152",
"H 	c #A2B0B7",
"I 	c #E3E7E9",
"J 	c #A1A6A8",
"K 	c #1D1F1F",
"L 	c #050505",
"M 	c #010101",
"N 	c #393939",
"O 	c #53595C",
"P 	c #BBC5CA",
"Q 	c #E2E4E6",
"R 	c #161616",
"S 	c #070707",
"T 	c #38181F",
"U 	c #240E12",
"V 	c #030303",
"W 	c #ADADAD",
"X 	c #AAAAAA",
"Y 	c #717171",
"Z 	c #555555",
"` 	c #575C5F",
" .	c #D9DEE2",
"..	c #B6BBBE",
"+.	c #1A1A1A",
"@.	c #060606",
"#.	c #5E2F39",
"$.	c #3A171F",
"%.	c #070203",
"&.	c #454747",
"*.	c #EBEDF0",
"=.	c #70787B",
"-.	c #0A0A0A",
";.	c #190E10",
">.	c #754C55",
",.	c #3F1820",
"'.	c #1B0A0E",
").	c #3B3B3B",
"!.	c #E0E1E1",
"~.	c #4A4C4D",
"{.	c #0D0D0D",
"].	c #1C0B0F",
"^.	c #724B53",
"/.	c #421B23",
"(.	c #270E13",
"_.	c #1C1C1C",
":.	c #232323",
"<.	c #A4A4A4",
"[.	c #14090B",
"}.	c #6F5257",
"|.	c #3C171F",
"1.	c #13060A",
"2.	c #080808",
"3.	c #454545",
"4.	c #CACACA",
"5.	c #242424",
"6.	c #2F1218",
"7.	c #594449",
"8.	c #4A1D27",
"9.	c #3A171E",
"0.	c #2E1117",
"a.	c #16080A",
"b.	c #090909",
"c.	c #343434",
"d.	c #636363",
"e.	c #412228",
"f.	c #574246",
"g.	c #36151C",
"h.	c #401922",
"i.	c #321319",
"j.	c #18070A",
"k.	c #4A2C33",
"l.	c #63464D",
"m.	c #38171E",
"n.	c #2E1118",
"o.	c #0F0306",
"p.	c #1D0A0F",
"q.	c #745F65",
"r.	c #A29498",
"s.	c #D0C9CB",
"t.	c #685055",
"u.	c #42272D",
"v.	c #471C25",
"w.	c #33141B",
"x.	c #301319",
"y.	c #291015",
"z.	c #14070A",
"A.	c #2B0E17",
"B.	c #2F1019",
"C.	c #B9AFB2",
"D.	c #E7E3E4",
"E.	c #77656A",
"F.	c #8E6F75",
"G.	c #2D1218",
"H.	c #411A21",
"I.	c #2B1016",
"J.	c #0B0205",
"K.	c #3C111A",
"L.	c #581520",
"M.	c #721A26",
"N.	c #791C29",
"O.	c #681723",
"P.	c #5E1520",
"Q.	c #5E151F",
"R.	c #380C12",
"S.	c #360C12",
"T.	c #150406",
"U.	c #80676C",
"V.	c #441B24",
"W.	c #34151C",
"X.	c #2C1116",
"Y.	c #220D11",
"Z.	c #1E0A0D",
"`.	c #220B12",
" +	c #46121C",
".+	c #631722",
"++	c #6D1E2A",
"@+	c #7C696D",
"#+	c #4B1E28",
"$+	c #2E1318",
"%+	c #33141A",
"&+	c #220D12",
"*+	c #3D181F",
"=+	c #35141A",
"-+	c #100507",
";+	c #330F17",
">+	c #79555F",
",+	c #BFA0A9",
"'+	c #B78690",
")+	c #7B222E",
"!+	c #AC959A",
"~+	c #3E1921",
"{+	c #37161C",
"]+	c #31141A",
"^+	c #250E12",
"/+	c #210A0F",
"(+	c #5B141E",
"_+	c #90525D",
":+	c #C69DA7",
"<+	c #DEC1CA",
"[+	c #D5B2BC",
"}+	c #BE939C",
"|+	c #832E3A",
"1+	c #6F222E",
"2+	c #75585F",
"3+	c #451C25",
"4+	c #2D1217",
"5+	c #271015",
"6+	c #32131A",
"7+	c #130609",
"8+	c #1D0C0F",
"9+	c #260B10",
"0+	c #67454B",
"a+	c #91606A",
"b+	c #E3C8D2",
"c+	c #E0C5CE",
"d+	c #D7B6BF",
"e+	c #B98A94",
"f+	c #812A37",
"g+	c #733943",
"h+	c #785960",
"i+	c #2B1015",
"j+	c #30131A",
"k+	c #100508",
"l+	c #1C0B0E",
"m+	c #2C0C12",
"n+	c #552E36",
"o+	c #8E616B",
"p+	c #BD909A",
"q+	c #CAA3AC",
"r+	c #D5B4BE",
"s+	c #B27D87",
"t+	c #893A47",
"u+	c #6F3540",
"v+	c #785159",
"w+	c #52212B",
"x+	c #3B181F",
"y+	c #35141B",
"z+	c #0E0507",
"A+	c #280C12",
"B+	c #150508",
"C+	c #4A1D24",
"D+	c #8B5A63",
"E+	c #9D5A67",
"F+	c #9F5C67",
"G+	c #842F3D",
"H+	c #6A2E38",
"I+	c #673C45",
"J+	c #4D2029",
"K+	c #110608",
"L+	c #280B0F",
"M+	c #532F36",
"N+	c #7E3D48",
"O+	c #55222D",
"P+	c #451E26",
"Q+	c #2C0D12",
"R+	c #110306",
"S+	c #170407",
"T+	c #51121B",
"U+	c #361118",
"V+	c #170709",
"                                                                                                ",
"                                                                                                ",
"                                                                                                ",
"                                                                                                ",
"                                                                                                ",
"                                                                                                ",
"                                                . . . + @ @ # $                                 ",
"                              . . % @ @ @ $ $ $ $ & * $ $ $ $ @                                 ",
"                          $ $ $ = $ $ $ $ $ $ $ - ; > , ' $ $ @                                 ",
"                        . $ ) ! ~ * $ $ = { $ $ $ $ $ $ ] $ $ %                                 ",
"                        + $ ^ / ( _ : < [ $ $ } ^ | 1 2 _ $ $ .                                 ",
"                        3 4 } & 5 6 & $ $ $ $ $ { = $ 7 / { $                                   ",
"            8 9 9 9 9 9 9 0 9 9 0 9 9 9 9 9 a { ] ( b b ~ $ $                                   ",
"              c 9 9 9 9 9 9 9 9 9 9 9 9 9 9 d ^ e - $ $ ] $ #                                   ",
"                9 9 9 9 9 9 9 9 9 9 9 9 9 9 9 : $ $ $ $ $ $ @                                   ",
"                f 9 9 9 9 9 9 9 9 9 9 9 9 9 9 9 a $ $ $ $ $ +                                   ",
"                  g 9 9 9 9 9 9 9 9 9 9 9 9 9 9 d * $ $ $ $ h 8 8 8 8 8 8 8 8 i                 ",
"                    9 9 9 9 9 9 9 9 9 9 9 9 9 9 9 : $ $ $ $ h 8 8 8 8 8 8 i j                   ",
"                    k 9 9 9 9 9 9 9 9 9 9 9 9 9 9 9 l m n o p q r 8 8 8 s                       ",
"                          t u v j j 9 9 9 9 9 9 9 9 i w x y z A B C D                           ",
"                          E E E E E E E E u u F j j G H I J K L M N                             ",
"                          E E E E E E E E E E E E E O P Q R S T U V                             ",
"                      @ $ W X Y Z k E E E E E E E E `  ...+.@.#.$.%.                            ",
"                    @ $ $ $ $ $ $ $ $ $ X X Y Z k E &.*.=.-.;.>.,.'.                            ",
"                  # $ $ $ $ $ $ $ $ $ $ $ $ $ $ $ X ).!.~.{.].^./.(.                            ",
"              . # $ $ $ $ $ $ $ $ $ $ $ $ $ $ $ ! _.:.| <.E [.}.|.|.1.                          ",
"            . $ $ $ $ $ $ $ $ $ $ $ $ $ $ $ $ $ k E 2.3.4.5.6.7.8.9.0.a.                        ",
"              . @ $ $ $ $ $ $ $ $ $ $ $ $ $ $ a     E b.c.d.e.f.g.h.i.j.                        ",
"                      % @ $ $ $ $ $ $ $ $ $ 4               k.l.h.m.0.n.o.                      ",
"                          p.q.r.s.$ $ $ $ $ k               t.u.v.w.x.y.z.                      ",
"                          A.B.B.B.B.q.C.D.E.  E E E E     E F.g.0.h.G.H.I.J.                    ",
"                          B.B.B.B.B.B.K.L.M.N.O.P.Q.R.S.T.E U.V.w.W.W.X.Y.Z.E                   ",
"                        `.B.B.B. +.+N.N.N.N.N.N.N.N.N.N.N.++@+|.#+$+%+&+*+=+-+E                 ",
"                        ;+>+,+'+)+N.N.N.N.N.N.N.N.N.N.N.N.++!+~+{+9.]+g.x.^+/+E E               ",
"                          (+_+:+<+[+}+|+N.N.N.N.N.N.N.N.N.1+2+3+4+%+5+6+7+8+9+E E               ",
"                                0+a+:+b+c+d+e+f+N.N.N.N.N.g+h+3+0.i+j+k+l+m+E E E               ",
"                                      n+o+p+q+r+s+t+N.N.N.u+v+w+x+y+z+A+B+E E E E               ",
"                                            C+D+E+F+G+N.N.H+I+J+X.K+L+E E E E                   ",
"                                                  M+N+N.N.O+P+y.Q+R+E E                         ",
"                                                      S+T+w+U+V+E E                             ",
"                                                          E E                                   ",
"                                                                                                ",
"                                                                                                ",
"                                                                                                ",
"                                                                                                ",
"                                                                                                ",
"                                                                                                ",
"                                                                                                "};
