/* XPM */
static char * application_xpm[] = {
"16 16 88 1",
" 	c None",
".	c #1D1E1D",
"+	c #20221F",
"@	c #A7ADA5",
"#	c #6F756B",
"$	c #585C53",
"%	c #878B7E",
"&	c #989D93",
"*	c #71756B",
"=	c #575950",
"-	c #50524A",
";	c #616358",
">	c #909285",
",	c #9C9F93",
"'	c #A6A79E",
")	c #9B9D93",
"!	c #8B8D83",
"~	c #74766C",
"{	c #5F6156",
"]	c #56584D",
"^	c #8D9082",
"/	c #ADAFA7",
"(	c #BBBCB4",
"_	c #B7B9B0",
":	c #BCBDB6",
"<	c #B6B7B1",
"[	c #676860",
"}	c #55574D",
"|	c #4B4D44",
"1	c #383933",
"2	c #86887C",
"3	c #A4A5A0",
"4	c #999994",
"5	c #9B9C95",
"6	c #91928C",
"7	c #92928E",
"8	c #7E7F79",
"9	c #51544A",
"0	c #44463D",
"a	c #3E3F38",
"b	c #808277",
"c	c #747571",
"d	c #80807C",
"e	c #A3A59C",
"f	c #7E7F77",
"g	c #6C6D6B",
"h	c #565851",
"i	c #4A4C42",
"j	c #40413A",
"k	c #383A33",
"l	c #74766B",
"m	c #AFB0AA",
"n	c #95978F",
"o	c #6E7066",
"p	c #4C4E44",
"q	c #4A4C43",
"r	c #42433C",
"s	c #3E403A",
"t	c #373832",
"u	c #616359",
"v	c #676960",
"w	c #92938E",
"x	c #62635C",
"y	c #484942",
"z	c #4D4F47",
"A	c #43453E",
"B	c #383934",
"C	c #32342F",
"D	c #282924",
"E	c #56574F",
"F	c #3B3A34",
"G	c #3E211F",
"H	c #512726",
"I	c #302522",
"J	c #272824",
"K	c #2A2B27",
"L	c #2E2F2A",
"M	c #744644",
"N	c #88484B",
"O	c #812E30",
"P	c #403430",
"Q	c #30312D",
"R	c #5F2E2F",
"S	c #915153",
"T	c #6B1C1D",
"U	c #292A25",
"V	c #4D1616",
"W	c #3C0C0D",
"                ",
"                ",
"                ",
"       .+       ",
"       @#$      ",
"      %&*=-;    ",
"     >,')!~{]   ",
"    ^/(_:<[}|1  ",
"    234567890a  ",
"    bcdefghijk  ",
"    l~mnopqrst  ",
"    uvwxyzABCD  ",
"     EFGHIJKL   ",
"      MNOPQL    ",
"      RSTU      ",
"       VW       "};
