/* XPM */
static char * audio_xpm[] = {
"16 16 87 1",
" 	c None",
".	c #BCB7B6",
"+	c #F0E8E7",
"@	c #EEE3E2",
"#	c #ECDFDD",
"$	c #E7D8D6",
"%	c #B1A3A1",
"&	c #F0E9E8",
"*	c #F1EBEA",
"=	c #F1E9E8",
"-	c #EFE5E4",
";	c #EDE0DF",
">	c #EADCDA",
",	c #E7D7D4",
"'	c #E5D2CF",
")	c #E2CCC9",
"!	c #D4B6B2",
"~	c #D1C2BF",
"{	c #A79A99",
"]	c #DECAC7",
"^	c #E4D0CD",
"/	c #E7D6D4",
"(	c #E8D8D6",
"_	c #E6D3D1",
":	c #E3CECB",
"<	c #C6A19D",
"[	c #76443D",
"}	c #B5A4A1",
"|	c #A7A6A6",
"1	c #D3BFBC",
"2	c #D6B6B1",
"3	c #D2AEA9",
"4	c #D1ACA6",
"5	c #D5B3AE",
"6	c #BC948F",
"7	c #773F37",
"8	c #391E1A",
"9	c #CAAFAB",
"0	c #7E6E69",
"a	c #78665F",
"b	c #917670",
"c	c #C39994",
"d	c #C89A94",
"e	c #C5938C",
"f	c #885048",
"g	c #5F312C",
"h	c #5C4E48",
"i	c #363227",
"j	c #464132",
"k	c #554F3D",
"l	c #645246",
"m	c #B2817A",
"n	c #B98079",
"o	c #63332D",
"p	c #361C19",
"q	c #4B4037",
"r	c #494434",
"s	c #89826E",
"t	c #857E68",
"u	c #746C54",
"v	c #846156",
"w	c #965D56",
"x	c #4E2924",
"y	c #67534A",
"z	c #5B5441",
"A	c #78715B",
"B	c #5E5948",
"C	c #8F8771",
"D	c #886558",
"E	c #6C3C37",
"F	c #2E1815",
"G	c #A2756E",
"H	c #625443",
"I	c #736A52",
"J	c #9A9177",
"K	c #A39881",
"L	c #8E5951",
"M	c #3A1E1B",
"N	c #432B28",
"O	c #593D35",
"P	c #856051",
"Q	c #8B534A",
"R	c #81473F",
"S	c #0E0706",
"T	c #301A18",
"U	c #733E37",
"V	c #492622",
"                ",
"                ",
"                ",
"     .+@#$%     ",
"   &*=-;>,')!   ",
"   ~{]^/(_:<[   ",
"   }|12345678   ",
"   90abcdefg    ",
"   hijklmnop    ",
"   qrstuvwx     ",
"   yzABCDEF     ",
"   GHIJKLM      ",
"    NOPQRS      ",
"      TUV       ",
"                ",
"                "};
