/* XPM */
static char * general_xpm[] = {
"48 48 592 2",
"  	c None",
". 	c #B0BCBD",
"+ 	c #7C9CAE",
"@ 	c #627D94",
"# 	c #94959D",
"$ 	c #839BAC",
"% 	c #BACACE",
"& 	c #83959B",
"* 	c #AEBCC1",
"= 	c #CFDADF",
"- 	c #E9E7EA",
"; 	c #D6D9E2",
"> 	c #C9D0D8",
", 	c #8C9FB6",
"' 	c #BBA9B2",
") 	c #C4A8AE",
"! 	c #B8ACB5",
"~ 	c #9BA9B9",
"{ 	c #AFC2CD",
"] 	c #A1C4D2",
"^ 	c #92A5AB",
"/ 	c #BCB8BB",
"( 	c #EFE8E9",
"_ 	c #F7F5F5",
": 	c #F9F2F0",
"< 	c #F9E9E3",
"[ 	c #FAEAE3",
"} 	c #F0D9D5",
"| 	c #9AABC5",
"1 	c #678CB9",
"2 	c #B2B5C9",
"3 	c #F5E2DE",
"4 	c #EACCCA",
"5 	c #AFACBD",
"6 	c #7897B5",
"7 	c #8AA5BC",
"8 	c #3C6890",
"9 	c #183B5F",
"0 	c #D3C6C4",
"a 	c #E6D5D6",
"b 	c #F8EFEE",
"c 	c #F5E7E5",
"d 	c #F4DAD2",
"e 	c #F5DED5",
"f 	c #EFD2CE",
"g 	c #B8AFC5",
"h 	c #6B8AB6",
"i 	c #86A9CB",
"j 	c #95ADC6",
"k 	c #C0BECF",
"l 	c #9F9BB6",
"m 	c #5973A2",
"n 	c #225194",
"o 	c #2963A1",
"p 	c #184788",
"q 	c #144078",
"r 	c #103766",
"s 	c #E9E4E4",
"t 	c #F8EBE9",
"u 	c #F3E4E4",
"v 	c #EBE4E7",
"w 	c #C5C3D2",
"x 	c #8197BD",
"y 	c #6288B8",
"z 	c #4978B0",
"A 	c #548ABD",
"B 	c #487CB3",
"C 	c #8AA5C4",
"D 	c #AEC2D3",
"E 	c #7D8FB4",
"F 	c #9195B6",
"G 	c #255DA1",
"H 	c #255EA1",
"I 	c #3E72A8",
"J 	c #32629C",
"K 	c #0C387C",
"L 	c #27507F",
"M 	c #20466C",
"N 	c #F1EEEE",
"O 	c #ECDEDF",
"P 	c #B2B3C6",
"Q 	c #819CC2",
"R 	c #3C79B5",
"S 	c #226AB0",
"T 	c #2A6BAE",
"U 	c #2666A9",
"V 	c #275EA2",
"W 	c #73A3C9",
"X 	c #9FC1D4",
"Y 	c #A1C0D4",
"Z 	c #ACB9CA",
"` 	c #99B0CA",
" .	c #6582AF",
"..	c #1D5095",
"+.	c #205CA2",
"@.	c #184F96",
"#.	c #15488D",
"$.	c #0B3578",
"%.	c #3E6795",
"&.	c #9AB4C2",
"*.	c #0A2B59",
"=.	c #B4C4CE",
"-.	c #84A5C1",
";.	c #4883B8",
">.	c #6FA5CA",
",.	c #6C9DC7",
"'.	c #B9D1E1",
").	c #8BB8D2",
"!.	c #73A5C9",
"~.	c #A2C2D7",
"{.	c #95BAD6",
"].	c #CEDCE4",
"^.	c #D2D8E0",
"/.	c #ADBBCC",
"(.	c #8BB1CE",
"_.	c #396198",
":.	c #25518D",
"<.	c #204C8D",
"[.	c #406CA1",
"}.	c #184F95",
"|.	c #245595",
"1.	c #3F6396",
"2.	c #0A2E6D",
"3.	c #688FAE",
"4.	c #194373",
"5.	c #082551",
"6.	c #3C627A",
"7.	c #467FAE",
"8.	c #689BC1",
"9.	c #7EADCE",
"0.	c #95BDD8",
"a.	c #D5E4EA",
"b.	c #96BCD7",
"c.	c #E3EAEF",
"d.	c #E2E9EF",
"e.	c #2D5997",
"f.	c #E4EAEF",
"g.	c #C3D2DF",
"h.	c #C1CCD7",
"i.	c #CCD4DC",
"j.	c #89A3C3",
"k.	c #4579AC",
"l.	c #9DB3C9",
"m.	c #5D82AF",
"n.	c #A4B9CE",
"o.	c #BCCBDB",
"p.	c #A9C2D7",
"q.	c #E0E5EA",
"r.	c #869DB9",
"s.	c #1A3F74",
"t.	c #0F2F67",
"u.	c #062661",
"v.	c #031536",
"w.	c #000000",
"x.	c #020404",
"y.	c #213C50",
"z.	c #749CBA",
"A.	c #5E91B9",
"B.	c #9FBFD3",
"C.	c #CADBE7",
"D.	c #E0E6EB",
"E.	c #A6C3D8",
"F.	c #BDD0DE",
"G.	c #E0E7EB",
"H.	c #A1BAD0",
"I.	c #DEE5EB",
"J.	c #C7CACB",
"K.	c #555657",
"L.	c #313334",
"M.	c #222A33",
"N.	c #58626B",
"O.	c #A0AFBE",
"P.	c #809FBA",
"Q.	c #AFBDCC",
"R.	c #5372A3",
"S.	c #2E5189",
"T.	c #CEDCE6",
"U.	c #9DB6CA",
"V.	c #7397B4",
"W.	c #17376B",
"X.	c #4C678F",
"Y.	c #3A4B6C",
"Z.	c #000102",
"`.	c #212121",
" +	c #797979",
".+	c #C2C2C2",
"++	c #5C5C5C",
"@+	c #DCDCDC",
"#+	c #AAAAAA",
"$+	c #4F5051",
"%+	c #183854",
"&+	c #3872A5",
"*+	c #85ABC8",
"=+	c #D5DFE7",
"-+	c #EDEFF1",
";+	c #BDD0DD",
">+	c #DCE5EA",
",+	c #CCD5DA",
"'+	c #414243",
")+	c #515151",
"!+	c #2F3D50",
"~+	c #213C69",
"{+	c #18427E",
"]+	c #183C76",
"^+	c #1D4783",
"/+	c #254D81",
"(+	c #35557E",
"_+	c #8FA4B6",
":+	c #1E222C",
"<+	c #4F4F4F",
"[+	c #2F2F2F",
"}+	c #CCCCCC",
"|+	c #EDEDED",
"1+	c #F2F2F2",
"2+	c #F4F4F4",
"3+	c #F3F3F3",
"4+	c #F1F1F1",
"5+	c #EFEFEF",
"6+	c #888888",
"7+	c #122436",
"8+	c #6791B0",
"9+	c #2761A1",
"0+	c #B9CAD9",
"a+	c #AAC6D8",
"b+	c #BBCBD6",
"c+	c #363636",
"d+	c #050E20",
"e+	c #22487B",
"f+	c #1B4279",
"g+	c #174584",
"h+	c #2C588B",
"i+	c #5F7292",
"j+	c #303233",
"k+	c #CDCDCD",
"l+	c #F8F8F8",
"m+	c #F9F9F9",
"n+	c #F7F7F7",
"o+	c #C3C3C3",
"p+	c #4D4D4D",
"q+	c #777778",
"r+	c #5C6B79",
"s+	c #5981A5",
"t+	c #CED6DD",
"u+	c #D0DAE4",
"v+	c #393D40",
"w+	c #777777",
"x+	c #192D4A",
"y+	c #122E60",
"z+	c #103272",
"A+	c #6E86A9",
"B+	c #272D33",
"C+	c #787878",
"D+	c #FAFAFA",
"E+	c #FCFCFC",
"F+	c #FBFBFB",
"G+	c #C7C7C7",
"H+	c #484848",
"I+	c #C1C1C1",
"J+	c #F0F0F0",
"K+	c #E2E2E2",
"L+	c #22272D",
"M+	c #31537F",
"N+	c #7E8FAE",
"O+	c #8797AC",
"P+	c #1F2328",
"Q+	c #233A60",
"R+	c #0E2559",
"S+	c #3F547B",
"T+	c #C5C5C5",
"U+	c #5F5F5F",
"V+	c #1B1B1B",
"W+	c #BFBFBF",
"X+	c #FDFDFD",
"Y+	c #ADADAD",
"Z+	c #C4C4C4",
"`+	c #ECECEC",
" @	c #5D5E5E",
".@	c #526F8A",
"+@	c #7D90A9",
"@@	c #2F3642",
"#@	c #5D5D5E",
"$@	c #1D385B",
"%@	c #0D204C",
"&@	c #061023",
"*@	c #474747",
"=@	c #3E3E3E",
"-@	c #5E5E5E",
";@	c #595959",
">@	c #F6F6F6",
",@	c #242424",
"'@	c #636363",
")@	c #F5F5F5",
"!@	c #737373",
"~@	c #889196",
"{@	c #AAB2B9",
"]@	c #24252A",
"^@	c #C6C6C6",
"/@	c #273E5A",
"(@	c #10254E",
"_@	c #040B16",
":@	c #565656",
"<@	c #131313",
"[@	c #D4D4D4",
"}@	c #7B7B7B",
"|@	c #535353",
"1@	c #B8B8B8",
"2@	c #EEEEEE",
"3@	c #EBEBEB",
"4@	c #6C6C6C",
"5@	c #152E54",
"6@	c #18386B",
"7@	c #292E34",
"8@	c #585858",
"9@	c #25324A",
"0@	c #566B82",
"a@	c #09111B",
"b@	c #A4A4A4",
"c@	c #C0C0C0",
"d@	c #BABABA",
"e@	c #EAEAEA",
"f@	c #464747",
"g@	c #4B667E",
"h@	c #365582",
"i@	c #253950",
"j@	c #575757",
"k@	c #404142",
"l@	c #09142B",
"m@	c #2B3E59",
"n@	c #353941",
"o@	c #424242",
"p@	c #E9E9E9",
"q@	c #D1D1D1",
"r@	c #353535",
"s@	c #889498",
"t@	c #587FA0",
"u@	c #40618E",
"v@	c #4E4E4F",
"w@	c #080F1A",
"x@	c #1F3048",
"y@	c #091534",
"z@	c #2B3047",
"A@	c #848484",
"B@	c #E4E4E4",
"C@	c #333333",
"D@	c #5A6774",
"E@	c #758D9B",
"F@	c #235188",
"G@	c #204B86",
"H@	c #2A4258",
"I@	c #2C2E2F",
"J@	c #2C455D",
"K@	c #435A71",
"L@	c #1F2C45",
"M@	c #06102D",
"N@	c #32373C",
"O@	c #DEDEDE",
"P@	c #2D2D2D",
"Q@	c #757575",
"R@	c #DDDDDD",
"S@	c #DADADA",
"T@	c #303132",
"U@	c #43505E",
"V@	c #7E8790",
"W@	c #9DA8B4",
"X@	c #4E6287",
"Y@	c #406494",
"Z@	c #7998B4",
"`@	c #404547",
" #	c #747575",
".#	c #2D2E30",
"+#	c #304150",
"@#	c #6C7D86",
"##	c #8296A2",
"$#	c #41526F",
"%#	c #2B3850",
"&#	c #5D6A7E",
"*#	c #121823",
"=#	c #747474",
"-#	c #526272",
";#	c #577287",
">#	c #7C98A9",
",#	c #C7D0D5",
"'#	c #CAD4DB",
")#	c #53749D",
"!#	c #5D799F",
"~#	c #C1C5C7",
"{#	c #8C8D8D",
"]#	c #343434",
"^#	c #6D6D6D",
"/#	c #171D25",
"(#	c #142949",
"_#	c #4F677C",
":#	c #687B92",
"<#	c #B4C1C6",
"[#	c #394F6C",
"}#	c #536F8B",
"|#	c #50718E",
"1#	c #436785",
"2#	c #010C26",
"3#	c #181A1E",
"4#	c #131D22",
"5#	c #5A7684",
"6#	c #A4A5A5",
"7#	c #8496A3",
"8#	c #7E9DAD",
"9#	c #B6C4CB",
"0#	c #7EA4C0",
"a#	c #DCE2E9",
"b#	c #CBD9E4",
"c#	c #D7DEE3",
"d#	c #E8E8E9",
"e#	c #D5D5D6",
"f#	c #A6A7A9",
"g#	c #7A868E",
"h#	c #43596F",
"i#	c #40556B",
"j#	c #2E4463",
"k#	c #27496C",
"l#	c #506A81",
"m#	c #5B728F",
"n#	c #E8EAEB",
"o#	c #B8C5D0",
"p#	c #CFD9DC",
"q#	c #B2CAD4",
"r#	c #4E7188",
"s#	c #0A2342",
"t#	c #020B24",
"u#	c #050609",
"v#	c #618697",
"w#	c #CCCFCF",
"x#	c #C7D0D3",
"y#	c #7696B7",
"z#	c #DAE3E8",
"A#	c #85ADC8",
"B#	c #EDF1F3",
"C#	c #EFF2F4",
"D#	c #E8ECEF",
"E#	c #C2CCD8",
"F#	c #E8EAEA",
"G#	c #CED3D6",
"H#	c #ADBAC1",
"I#	c #B5BCBF",
"J#	c #9EACB3",
"K#	c #67889E",
"L#	c #3F6080",
"M#	c #3E5A7B",
"N#	c #2A3F63",
"O#	c #3A6083",
"P#	c #375076",
"Q#	c #0D1A3B",
"R#	c #6C859C",
"S#	c #9FC4D2",
"T#	c #0F294F",
"U#	c #06183F",
"V#	c #070B1D",
"W#	c #010101",
"X#	c #13212A",
"Y#	c #85B4C8",
"Z#	c #90B2C8",
"`#	c #B1BFD3",
" $	c #DFE6EB",
".$	c #DAE5EC",
"+$	c #D8E1E8",
"@$	c #F6F8F8",
"#$	c #DDE5E9",
"$$	c #C3CFDB",
"%$	c #CBD6DE",
"&$	c #E9EBEC",
"*$	c #DCDFE3",
"=$	c #7B8EA9",
"-$	c #9FACBB",
";$	c #66839F",
">$	c #8D9EB2",
",$	c #6F8DA8",
"'$	c #738EA6",
")$	c #062358",
"!$	c #041032",
"~$	c #081838",
"{$	c #11305D",
"]$	c #14355E",
"^$	c #010929",
"/$	c #020B2A",
"($	c #05050A",
"_$	c #325467",
":$	c #73A1C3",
"<$	c #7599B5",
"[$	c #B6C8D6",
"}$	c #D9E4E7",
"|$	c #4F739B",
"1$	c #A3BACC",
"2$	c #E7EDEF",
"3$	c #D9E5EB",
"4$	c #F0F3F4",
"5$	c #DCE3E6",
"6$	c #9BB3C5",
"7$	c #E8EDEF",
"8$	c #D4DFE3",
"9$	c #C2CBD7",
"0$	c #ADC1CD",
"a$	c #7791A6",
"b$	c #3A5C81",
"c$	c #183C66",
"d$	c #52738C",
"e$	c #6A97AF",
"f$	c #21446B",
"g$	c #031844",
"h$	c #03143C",
"i$	c #040819",
"j$	c #406379",
"k$	c #A3C8D7",
"l$	c #ADCAD9",
"m$	c #E5EAEE",
"n$	c #C0D4DE",
"o$	c #E4EBEE",
"p$	c #F4F6F6",
"q$	c #FBFCFB",
"r$	c #F5F6F7",
"s$	c #F9FAFA",
"t$	c #FEFEFE",
"u$	c #FBFCFC",
"v$	c #E2EAEC",
"w$	c #D2DFE3",
"x$	c #7491A7",
"y$	c #A0B9C7",
"z$	c #8BB2C5",
"A$	c #55819C",
"B$	c #2A5174",
"C$	c #1D4161",
"D$	c #0A2651",
"E$	c #040F27",
"F$	c #3A5D70",
"G$	c #9AD7E7",
"H$	c #F4F8F9",
"I$	c #FEFFFF",
"J$	c #FFFFFF",
"K$	c #F6F7F7",
"L$	c #FCFDFC",
"M$	c #FAFBFA",
"N$	c #DFE4E6",
"O$	c #D2DDE0",
"P$	c #E9F4F6",
"Q$	c #7EBAD0",
"R$	c #1E4362",
"S$	c #08244C",
"T$	c #020A1E",
"U$	c #2A4150",
"V$	c #82B0C5",
"W$	c #B3CCD9",
"X$	c #F2F8F8",
"Y$	c #F5F7F6",
"Z$	c #F6F9FA",
"`$	c #CEEDF3",
" %	c #A0D9E7",
".%	c #3F6B88",
"+%	c #0A2247",
"@%	c #030B1D",
"#%	c #081014",
"$%	c #163049",
"%%	c #81ACC1",
"&%	c #E7EFF1",
"*%	c #EAF5F7",
"=%	c #F2F7F8",
"-%	c #FDFEFD",
";%	c #FDFEFE",
">%	c #F9FBFB",
",%	c #EDF5F7",
"'%	c #D7EAEF",
")%	c #A3D4E1",
"!%	c #75A8BD",
"~%	c #335974",
"{%	c #0A1D35",
"]%	c #02030A",
"^%	c #040A0F",
"/%	c #2D4B5A",
"(%	c #5C95AC",
"_%	c #7EBBD0",
":%	c #99CBDA",
"<%	c #A3D0DE",
"[%	c #A0D3E0",
"}%	c #83C0D4",
"|%	c #67A1BA",
"1%	c #47758C",
"2%	c #20415A",
"3%	c #0F2232",
"4%	c #02040A",
"5%	c #060F12",
"6%	c #0A1A24",
"7%	c #15262F",
"8%	c #1A323C",
"9%	c #10222B",
"0%	c #0A1119",
"a%	c #03070C",
"                                                                                                ",
"                                                                                                ",
"                                                                                                ",
"                                                                                                ",
"                                                                                                ",
"                                                                                                ",
"                                                                                                ",
"                                                                                                ",
"                                                                                                ",
"                                                                                                ",
"                                                                                                ",
"                                          . + @ # $ % &                                         ",
"                                    * = - ; > , ' ) ! ~ { ] ^                                   ",
"                                / ( _ : < [ } | 1 2 3 4 5 6 7 8 9                               ",
"                              0 a b c d e f g h i j k l m n o p q r                             ",
"                            s t u v w x y z A B C D E F G H I J K L M                           ",
"                          N O P Q R S T U V W X Y Z `  ...+.@.#.$.%.&.*.                        ",
"                        =.-.;.>.,.'.).!.~.{.].^./.(._.:.<.[.}.|.1.2.3.4.5.                      ",
"                      6.7.8.9.0.a.b.c.d.e.f.g.h.i.j.k.l.m.n.o.p.q.r.s.t.u.v.                    ",
"                w.w.x.y.z.A.B.C.D.E.F.G.H.I.J.K.L.M.N.O.P.Q.R.S.T.U.V.W.X.Y.Z.w.w.w.            ",
"            `. +.+++@+#+$+%+&+*+=+-+;+>+,+'+ +.+++@+#+)+!+~+{+]+^+/+(+_+:+ +.+++@+#+<+w.        ",
"          [+}+|+1+2+3+4+5+6+7+8+9+0+a+b+c+}+|+1+2+3+4+5+6+d+e+f+g+h+i+j+}+|+1+2+3+4+5+6+w.      ",
"        `.k+1+l+m+m+n+o+p+5+q+r+s+t+u+v+k+1+l+m+m+n+o+p+5+w+x+y+z+A+B+k+1+l+m+m+n+o+p+5+C+      ",
"         +|+n+D+E+F+G+H+I+J+K+L+M+N+O+ +|+n+D+E+F+G+H+I+J+K+P+Q+R+S+ +|+T+U+E+F+G+H+I+J+K+V+    ",
"      w.W+J+l+D+X+Y+U+Z+3+J+`+ @.@+@@@W+J+l+D+X+Y+U+Z+3+J+`+#@$@%@&@W+J+l+*@=@Y+U+Z+3+J+`+-@    ",
"      w.;@1+>@m+D+,@'@)@1+5+C+!@~@{@]@;@1+>@m+D+,@^@)@1+5+C+!@/@(@_@;@1+>@m+:@<@^@)@1+5+C+!@    ",
"      w.[@J+)@>@l+n+}@|@1@2@3@4@5@6@7@[@J+)@>@l+8@>@3+4+2@3@4@9@0@a@[@J+)@>@l+n+>@3+4+2@3@4@    ",
"      w.b@|+1+2+2+2+3+c@d@`+e@f@g@h@i@b@|+1+2+2+j@3+4+5+`+e@k@l@m@n@b@|+1+2+2+2+3+4+5+`+e@o@    ",
"        p+p@2@4+4+4+J+5+|+3@q@r@s@t@u@v@p@2@4+4+-@J+5+|+3@q@w@x@y@z@p+p@2@4+4+4+J+5+|+3@q@w.    ",
"        w.A@p@|+2@2@|+`+e@B@C@D@E@F@G@H@A@p@|+2@2@|+`+e@B@I@J@K@L@M@N@A@p@|+2@2@|+`+e@O@P@      ",
"          w.Q@R@e@w+e@e@S@T@U@V@W@X@Y@Z@`@ #R@e@w+e@e@S@.#+#@###$#%#&#*#=#R@e@w+e@e@q@P@w.      ",
"              V+++!@4@f@L.-#;#>#,#'#)#!#~#{#]#-@!@^#*@/#(#_#:#<#[#}#|#1#2#3#++!@4@o@w.          ",
"                  w.4#5#6#7#8#9#0#a#b#c#d#e#I+f#g#h#i#j#k#l#m#n#o#p#q#r#s#t#u#w.w.              ",
"                      v#w#x#y#z#A#B#C#D#E#F#G#H#I#J#K#L#M#N#O#P#Q#R#S#T#U#V#W#                  ",
"                      X#Y#Z#`# $.$+$@$#$$$%$&$*$=$-$;$>$,$'$)$!$~${$]$^$/$($                    ",
"                        _$:$<$[$}$|$1$2$3$4$5$6$7$8$9$0$a$b$c$d$e$f$g$h$i$                      ",
"                          j$k$l$m$n$o$p$q$F+r$s$t$u$v$w$x$y$z$A$B$C$D$E$                        ",
"                            F$G$H$I$J$t$K$l+L$J$M$q$J$X+N$O$P$Q$R$S$T$                          ",
"                              U$V$W$X$t$Y$E+J$J$J$J$J$J$Z$`$ %.%+%@%                            ",
"                                #%$%%%&%*%=%-%;%X+>%,%'%)%!%~%{%]%                              ",
"                                    ^%/%(%_%:%<%[%}%|%1%2%3%4%                                  ",
"                                          5%6%7%8%9%0%a%W#                                      ",
"                                                                                                ",
"                                                                                                ",
"                                                                                                ",
"                                                                                                ",
"                                                                                                ",
"                                                                                                "};
