/* XPM */
static char * image_xpm[] = {
"16 16 71 1",
" 	c None",
".	c #444444",
"+	c #222222",
"@	c #272726",
"#	c #4D4D4C",
"$	c #7F7F7F",
"%	c #AFAFAE",
"&	c #B0B0B0",
"*	c #6A6A6A",
"=	c #424242",
"-	c #9F9F9F",
";	c #9B9B9B",
">	c #B1B1B1",
",	c #AEAEAE",
"'	c #A8A8A8",
")	c #909090",
"!	c #777777",
"~	c #858D8D",
"{	c #7DCFB7",
"]	c #6DE188",
"^	c #8FD57A",
"/	c #ACB1A6",
"(	c #616161",
"_	c #6C6C6C",
":	c #8A8A89",
"<	c #5DB9E1",
"[	c #4EEFED",
"}	c #64EF86",
"|	c #A7FA4F",
"1	c #CFE66B",
"2	c #B1B1B0",
"3	c #7D7D7D",
"4	c #B3B5C0",
"5	c #4D7AFC",
"6	c #8EA5DE",
"7	c #C6C6C6",
"8	c #E0CA86",
"9	c #FBCD4E",
"0	c #BFBFBF",
"a	c #797979",
"b	c #525252",
"c	c #DBDBDB",
"d	c #775BF8",
"e	c #AC67F4",
"f	c #E2A3D2",
"g	c #F56B6C",
"h	c #F48D61",
"i	c #CACAC9",
"j	c #C5C5C5",
"k	c #2E2E2E",
"l	c #383838",
"m	c #8D8D8D",
"n	c #555555",
"o	c #51262D",
"p	c #DFC0BF",
"q	c #D3D3D3",
"r	c #CDCDCC",
"s	c #A4A4A3",
"t	c #AAAAAA",
"u	c #717171",
"v	c #4C4C4C",
"w	c #E0E0E0",
"x	c #D5D5D5",
"y	c #767676",
"z	c #121212",
"A	c #5B5B5B",
"B	c #A3A3A3",
"C	c #000000",
"D	c #373737",
"E	c #F4F4F4",
"F	c #484848",
"                ",
"                ",
"        .+      ",
"    @#$%&*      ",
"   =-;>&,'      ",
"   )!~{]^/(     ",
"   _:<[}|12     ",
"   34567890a    ",
"   bcdefghijk   ",
"  lmlllnopqrs   ",
"  ntumnmvwxyz   ",
"    At'B;uzC    ",
"    DEtFC       ",
"     C          ",
"                ",
"                "};
