/* XPM */
static char * mail_view_xpm[] = {
"24 24 178 2",
"  	c None",
". 	c #000000",
"+ 	c #7B7B78",
"@ 	c #C7C7C3",
"# 	c #F1F0EB",
"$ 	c #BFBFBC",
"% 	c #5F5E5E",
"& 	c #E3E3DF",
"* 	c #F3F3EF",
"= 	c #F2F2EE",
"- 	c #F1F1EC",
"; 	c #F0EFEB",
"> 	c #D2D2CD",
", 	c #969592",
"' 	c #616060",
") 	c #B5B5B4",
"! 	c #F8F8F6",
"~ 	c #F7F7F5",
"{ 	c #F6F6F3",
"] 	c #F5F5F2",
"^ 	c #F4F4F0",
"/ 	c #F2F1ED",
"( 	c #F1F0EC",
"_ 	c #F0EFEA",
": 	c #EFEEE9",
"< 	c #4F4F4D",
"[ 	c #BDBCB8",
"} 	c #A7A6A3",
"| 	c #C6C6C4",
"1 	c #7C7C7B",
"2 	c #525251",
"3 	c #DBDBD9",
"4 	c #F5F4F1",
"5 	c #F4F3F0",
"6 	c #F3F2EE",
"7 	c #999894",
"8 	c #62625F",
"9 	c #BCBCB6",
"0 	c #EBE9E3",
"a 	c #838381",
"b 	c #D7D6D4",
"c 	c #A8A8A6",
"d 	c #515150",
"e 	c #7E7D7C",
"f 	c #DAD9D5",
"g 	c #EFEEE8",
"h 	c #EEEDE7",
"i 	c #4F4E4C",
"j 	c #BCBBB6",
"k 	c #EBE9E2",
"l 	c #EAE8E1",
"m 	c #F6F5F2",
"n 	c #F4F3EF",
"o 	c #B5B4B1",
"p 	c #9B9A97",
"q 	c #646361",
"r 	c #92918E",
"s 	c #EEEDE8",
"t 	c #EDECE6",
"u 	c #4E4E4C",
"v 	c #797976",
"w 	c #797874",
"x 	c #E9E8E1",
"y 	c #E8E7DF",
"z 	c #B4B3AF",
"A 	c #D0D0CD",
"B 	c #F2F2ED",
"C 	c #BFBEBA",
"D 	c #BEBDB9",
"E 	c #7A7A77",
"F 	c #979691",
"G 	c #EAE9E2",
"H 	c #959590",
"I 	c #787773",
"J 	c #B8B7B0",
"K 	c #E6E4DC",
"L 	c #A9A9A6",
"M 	c #626260",
"N 	c #EBEAE3",
"O 	c #E8E6DF",
"P 	c #E7E5DE",
"Q 	c #E6E4DD",
"R 	c #E5E3DB",
"S 	c #767570",
"T 	c #918F8A",
"U 	c #BEBDB8",
"V 	c #989793",
"W 	c #E9E7E1",
"X 	c #404040",
"Y 	c #808080",
"Z 	c #686868",
"` 	c #EEECE7",
" .	c #62615F",
"..	c #EBEAE4",
"+.	c #E1E0DA",
"@.	c #F4F4F4",
"#.	c #DFDFDF",
"$.	c #EAEAEA",
"%.	c #E9E9E9",
"&.	c #F2F2F2",
"*.	c #F9F9F8",
"=.	c #B8B8B8",
"-.	c #515151",
";.	c #B6B5B2",
">.	c #BCBCB7",
",.	c #DEDDD6",
"'.	c #E2E2E2",
").	c #D1D1D1",
"!.	c #CECECE",
"~.	c #E9E9E8",
"{.	c #7B7B7A",
"].	c #ECEBE5",
"^.	c #61615E",
"/.	c #E9E8E0",
"(.	c #DDDBD4",
"_.	c #F3F3F3",
":.	c #F0F0F0",
"<.	c #CDCDCC",
"[.	c #DEDEDC",
"}.	c #BABAB8",
"|.	c #D5D5D4",
"1.	c #C6C6C5",
"2.	c #797875",
"3.	c #969590",
"4.	c #CFCEC8",
"5.	c #AEADA8",
"6.	c #E7E7E7",
"7.	c #D4D4D3",
"8.	c #D0D0CE",
"9.	c #AEAEAD",
"0.	c #ABABAA",
"a.	c #C7C7C5",
"b.	c #C3C3C2",
"c.	c #585754",
"d.	c #7B7A76",
"e.	c #E5E5E5",
"f.	c #D2D2D1",
"g.	c #E5E5E4",
"h.	c #D8D8D7",
"i.	c #ACACAA",
"j.	c #96A0A2",
"k.	c #829096",
"l.	c #A4A4A2",
"m.	c #C0C0BF",
"n.	c #DEDEDD",
"o.	c #C2C2C0",
"p.	c #B5B7A4",
"q.	c #848E7B",
"r.	c #A0A09E",
"s.	c #BDBDBB",
"t.	c #D8D8D6",
"u.	c #D2D2D0",
"v.	c #C3C3C1",
"w.	c #8F928A",
"x.	c #69726A",
"y.	c #9C9C9A",
"z.	c #B9B9B7",
"A.	c #CACAC8",
"B.	c #BBBBB8",
"C.	c #B6B6B4",
"D.	c #CCCCCA",
"E.	c #B3B3B0",
"F.	c #C6C6C3",
"G.	c #B7B7B5",
"H.	c #CECECB",
"I.	c #D4D4D1",
"J.	c #B7B7B4",
"K.	c #D7D7D4",
"L.	c #B1B1AE",
"M.	c #BDBDBA",
"N.	c #CCCCC7",
"O.	c #B6B6B3",
"P.	c #747474",
"Q.	c #C2C2BE",
"R.	c #B9B9B6",
"S.	c #ACACA8",
"T.	c #ABABA8",
"U.	c #939391",
"                                                ",
"                                                ",
"                          . . . .               ",
"                . . . . . + @ # $ .             ",
"      . . . . . % $ & * = - ; > , .             ",
"    . ' ) ! ~ { ] ^ * / ( _ : < [ } .           ",
"    . | 1 2 3 4 5 6 / # _ : 7 8 9 0 .           ",
"    . a b c d e f / # _ g h i j k l .           ",
"      . m 4 n o p q r s t u v w x y z .         ",
"      . A * B ( ; C D E u F G H I J K .         ",
"      . L / ( _ : M t N x O P Q R S T .         ",
"        . # _ g U V W X Y Y Y Y Y Y Y Z .       ",
"        . ; g `  ...+.Y @.#.@.$.%.&.*.=.-.      ",
"        . ;.t >.F G ,.Y $.'.@.).!.'.~.).{..     ",
"          . ].^.G /.(.Y $._.:.!.<.[.}.|.1..     ",
"          . 2.3.4.5.. Y $.6.7.1.8.9.0.a.b..     ",
"          . c.d.. .   Y e.f.g.h.i.j.k.l.m..     ",
"            . .       Y n.o.1.<.c p.q.r.s..     ",
"                      Y t.u.| v.l.w.x.y.}..     ",
"                      Y f.z.A.B.C.D.E.F.G..     ",
"                      Y H.I.J.K.L.M.L.N.O..     ",
"                      P.a.Q.}.R.L.S.T.L U..     ",
"                      . . . . . . . . . .       ",
"                                                "};
