/* XPM */
static char * mailbox_xpm[] = {
"48 48 437 2",
"  	c None",
". 	c #1B1B1B",
"+ 	c #111111",
"@ 	c #B4B4B4",
"# 	c #707070",
"$ 	c #101010",
"% 	c #191919",
"& 	c #C28D81",
"* 	c #BF887C",
"= 	c #060606",
"- 	c #F4F4F4",
"; 	c #C3C3C3",
"> 	c #A2A2A2",
", 	c #787777",
"' 	c #2B1E1C",
") 	c #996D63",
"! 	c #A6695B",
"~ 	c #B47061",
"{ 	c #613C34",
"] 	c #CCCCCC",
"^ 	c #E3E3E3",
"/ 	c #D0D0D0",
"( 	c #9E9E9E",
"_ 	c #DCDCDC",
": 	c #C4C4C4",
"< 	c #7A7878",
"[ 	c #000000",
"} 	c #945C4F",
"| 	c #B67667",
"1 	c #A35D4C",
"2 	c #A15A4C",
"3 	c #373737",
"4 	c #EEEEEE",
"5 	c #DFDFDF",
"6 	c #9F9F9F",
"7 	c #D1D1D1",
"8 	c #E6E6E6",
"9 	c #ECECEC",
"0 	c #B1B1B1",
"a 	c #9B9A99",
"b 	c #9D6154",
"c 	c #B46D5F",
"d 	c #B36E60",
"e 	c #73473E",
"f 	c #DDDDDD",
"g 	c #EBEBEB",
"h 	c #D9D9D9",
"i 	c #A8A8A8",
"j 	c #B9B9B9",
"k 	c #D6D6D6",
"l 	c #E5E5E5",
"m 	c #E8E8E8",
"n 	c #777676",
"o 	c #935A4F",
"p 	c #B36C5E",
"q 	c #B67467",
"r 	c #BE867B",
"s 	c #141414",
"t 	c #F0F0F0",
"u 	c #E2E2E2",
"v 	c #E4E4E4",
"w 	c #BDBDBD",
"x 	c #ADADAD",
"y 	c #C7C7C7",
"z 	c #CECECE",
"A 	c #DEDEDE",
"B 	c #D8D8D8",
"C 	c #808080",
"D 	c #95594E",
"E 	c #B57265",
"F 	c #A0594B",
"G 	c #BD857A",
"H 	c #B26B5D",
"I 	c #B36A5C",
"J 	c #73443B",
"K 	c #F1F1F1",
"L 	c #DBDBDB",
"M 	c #D4D4D4",
"N 	c #AEAEAE",
"O 	c #C0C0C0",
"P 	c #CACACA",
"Q 	c #C6C6C6",
"R 	c #AAAAAA",
"S 	c #BBBBBB",
"T 	c #B6B6B6",
"U 	c #7C7C7C",
"V 	c #59342D",
"W 	c #B67164",
"X 	c #A1584A",
"Y 	c #BC8479",
"Z 	c #B2695B",
"` 	c #F9F9F9",
" .	c #A0A0A0",
"..	c #C2C2C2",
"+.	c #BCBCBC",
"@.	c #BEBEBE",
"#.	c #CDCDCD",
"$.	c #9B9999",
"%.	c #603831",
"&.	c #B57163",
"*.	c #9F584A",
"=.	c #BB8378",
"-.	c #B26859",
";.	c #7C493E",
">.	c #D5D3D3",
",.	c #D5D5D5",
"'.	c #D7D7D7",
").	c #A9A9A9",
"!.	c #CFCFCF",
"~.	c #AAA9A9",
"{.	c #B57062",
"].	c #9D5648",
"^.	c #B98378",
"/.	c #B16556",
"(.	c #9A5547",
"_.	c #FBFBFB",
":.	c #DADADA",
"<.	c #D3D3D3",
"[.	c #CBCBCB",
"}.	c #ABABAB",
"|.	c #9D9998",
"1.	c #6B3B31",
"2.	c #A75C4E",
"3.	c #B46E5F",
"4.	c #9C5547",
"5.	c #B88277",
"6.	c #B16154",
"7.	c #D2D2D2",
"8.	c #8E8E8E",
"9.	c #ACACAC",
"0.	c #B98176",
"a.	c #B46B5E",
"b.	c #9B5246",
"c.	c #B77F76",
"d.	c #B06053",
"e.	c #B05E51",
"f.	c #414141",
"g.	c #1C1C1C",
"h.	c #F6F6F6",
"i.	c #989898",
"j.	c #B0B0B0",
"k.	c #939393",
"l.	c #232323",
"m.	c #404040",
"n.	c #454545",
"o.	c #B3685C",
"p.	c #9A5145",
"q.	c #B67E75",
"r.	c #3B3B3B",
"s.	c #565656",
"t.	c #616161",
"u.	c #BABABA",
"v.	c #AFAFAF",
"w.	c #B5B5B5",
"x.	c #A5A5A5",
"y.	c #919191",
"z.	c #9B9B9B",
"A.	c #A7A7A7",
"B.	c #9D9D9D",
"C.	c #202020",
"D.	c #4F4F4F",
"E.	c #985145",
"F.	c #B57E74",
"G.	c #AF5D50",
"H.	c #4B4B4B",
"I.	c #696969",
"J.	c #505050",
"K.	c #969696",
"L.	c #949494",
"M.	c #909090",
"N.	c #8A8A8A",
"O.	c #7B7B7B",
"P.	c #787878",
"Q.	c #7E7E7E",
"R.	c #878787",
"S.	c #8B8B8B",
"T.	c #757575",
"U.	c #585858",
"V.	c #6F6F6F",
"W.	c #636363",
"X.	c #B3685B",
"Y.	c #B37D74",
"Z.	c #AF5C4E",
"`.	c #A9594C",
" +	c #B36759",
".+	c #974F44",
"++	c #B27C73",
"@+	c #AC584D",
"#+	c #AF5E50",
"$+	c #B2796F",
"%+	c #B17970",
"&+	c #B06459",
"*+	c #954C42",
"=+	c #B07871",
"-+	c #AB574C",
";+	c #B06358",
">+	c #AA564B",
",+	c #AF6257",
"'+	c #934A40",
")+	c #AF7870",
"!+	c #A9554A",
"~+	c #AE6256",
"{+	c #AE7871",
"]+	c #A75448",
"^+	c #B1675C",
"/+	c #BC7E76",
"(+	c #A7554A",
"_+	c #AD6155",
":+	c #92473F",
"<+	c #AD7670",
"[+	c #C0847C",
"}+	c #D2A7A1",
"|+	c #DFC1BD",
"1+	c #C7938C",
"2+	c #CB9A93",
"3+	c #DFC1BE",
"4+	c #DBB8B4",
"5+	c #DDBCB8",
"6+	c #E0C3C0",
"7+	c #DAB7B3",
"8+	c #B7716A",
"9+	c #A55148",
"0+	c #A65247",
"a+	c #AC5F54",
"b+	c #8F453E",
"c+	c #AB736E",
"d+	c #A65047",
"e+	c #DDBDBA",
"f+	c #E7D0CD",
"g+	c #CFA19C",
"h+	c #D6AFAB",
"i+	c #D1A5A1",
"j+	c #D7B1AD",
"k+	c #D6B0AC",
"l+	c #D0A39F",
"m+	c #C48B85",
"n+	c #AC5E54",
"o+	c #AA736D",
"p+	c #A54F46",
"q+	c #DEC0BC",
"r+	c #E1C5C2",
"s+	c #F2E6E4",
"t+	c #CD9D98",
"u+	c #BF827C",
"v+	c #B36B64",
"w+	c #A34F46",
"x+	c #AA5D53",
"y+	c #8E443D",
"z+	c #A9716C",
"A+	c #A24D45",
"B+	c #C79590",
"C+	c #EAD7D6",
"D+	c #EBD9D7",
"E+	c #E4CCCA",
"F+	c #B97A74",
"G+	c #A95C53",
"H+	c #8E433B",
"I+	c #A9706A",
"J+	c #B7756F",
"K+	c #E3CAC8",
"L+	c #DEC1BE",
"M+	c #DAB9B5",
"N+	c #BA7C77",
"O+	c #A14B44",
"P+	c #A14C44",
"Q+	c #A85B52",
"R+	c #8B423A",
"S+	c #A86F69",
"T+	c #A04C43",
"U+	c #A04A43",
"V+	c #CB9D99",
"W+	c #AF6761",
"X+	c #C28C87",
"Y+	c #DDBFBD",
"Z+	c #DBBAB8",
"`+	c #DDC0BD",
" @	c #BC817B",
".@	c #9F4942",
"+@	c #A75951",
"@@	c #8B403A",
"#@	c #A86C67",
"$@	c #9F4B42",
"%@	c #BE8480",
"&@	c #AC615B",
"*@	c #B77772",
"=@	c #9D4842",
"-@	c #A55851",
";@	c #893F3A",
">@	c #A76C68",
",@	c #9C4741",
"'@	c #B77975",
")@	c #B97E7A",
"!@	c #B97D78",
"~@	c #BA807B",
"{@	c #A55750",
"]@	c #883E39",
"^@	c #A76B66",
"/@	c #B57571",
"(@	c #BE8682",
"_@	c #B16E69",
":@	c #B87A75",
"<@	c #9D4740",
"[@	c #9B4640",
"}@	c #A4574F",
"|@	c #863C37",
"1@	c #A66863",
"2@	c #B77A75",
"3@	c #B97D79",
"4@	c #BB817D",
"5@	c #9B453E",
"6@	c #A4564E",
"7@	c #853B36",
"8@	c #A56762",
"9@	c #9B433E",
"0@	c #99423E",
"a@	c #98413D",
"b@	c #A2534D",
"c@	c #863935",
"d@	c #A56562",
"e@	c #853834",
"f@	c #A4625F",
"g@	c #97403C",
"h@	c #963F3B",
"i@	c #A0514B",
"j@	c #843733",
"k@	c #A4615D",
"l@	c #7D3431",
"m@	c #863834",
"n@	c #682B29",
"o@	c #6C2D2A",
"p@	c #953E3A",
"q@	c #8C3A36",
"r@	c #732F2C",
"s@	c #682B28",
"t@	c #853733",
"u@	c #7A322F",
"v@	c #9F514B",
"w@	c #823533",
"x@	c #A25E5D",
"y@	c #572422",
"z@	c #0C0504",
"A@	c #5C2624",
"B@	c #933E3A",
"C@	c #78312F",
"D@	c #5B2524",
"E@	c #0C0404",
"F@	c #933C3A",
"G@	c #712E2C",
"H@	c #3D1918",
"I@	c #0A0404",
"J@	c #572421",
"K@	c #0B0404",
"L@	c #5C2623",
"M@	c #943E39",
"N@	c #943B39",
"O@	c #9F4E4A",
"P@	c #813432",
"Q@	c #A35E5C",
"R@	c #6C2B29",
"S@	c #AB6563",
"T@	c #672927",
"U@	c #A85F5E",
"V@	c #AF6C6B",
"W@	c #652827",
"X@	c #AD6C6B",
"Y@	c #923B39",
"Z@	c #9D4E4A",
"`@	c #803331",
" #	c #A15D5C",
".#	c #933A38",
"+#	c #662827",
"@#	c #B37574",
"##	c #6D2B29",
"$#	c #AF706F",
"%#	c #913A38",
"&#	c #632726",
"*#	c #B17372",
"=#	c #B27574",
"-#	c #9C4E49",
";#	c #7F3230",
">#	c #A15C5A",
",#	c #7A302F",
"'#	c #5A2422",
")#	c #64302F",
"!#	c #A45D5B",
"~#	c #913936",
"{#	c #5A2321",
"]#	c #774A49",
"^#	c #A05451",
"/#	c #251F1E",
"(#	c #7F5553",
"_#	c #9C4D4B",
":#	c #883532",
"<#	c #6B3A38",
"[#	c #A45C5A",
"}#	c #9C4D48",
"|#	c #7E2F2F",
"1#	c #A05959",
"2#	c #8F3836",
"3#	c #9B4E4C",
"4#	c #AB6A69",
"5#	c #B07472",
"6#	c #A15857",
"7#	c #954141",
"8#	c #AF7171",
"9#	c #AE6D6D",
"0#	c #9B4C4C",
"a#	c #8F3636",
"b#	c #A35C5B",
"c#	c #AD6E6D",
"d#	c #A25B59",
"e#	c #8E3735",
"f#	c #AA6968",
"g#	c #B07371",
"h#	c #9D5250",
"i#	c #8E3535",
"j#	c #9A4A47",
"k#	c #7D2E2E",
"l#	c #9D5858",
"m#	c #8D3434",
"n#	c #994946",
"o#	c #7C2D2D",
"p#	c #9C5757",
"q#	c #8C3333",
"r#	c #994945",
"s#	c #7B2C2C",
"t#	c #9B5656",
"u#	c #8B3232",
"v#	c #8A3131",
"w#	c #974744",
"x#	c #7A2B2B",
"y#	c #9F5E5C",
"z#	c #9A4C48",
"A#	c #332524",
"B#	c #4E2222",
"C#	c #6F2929",
"D#	c #7E2D2D",
"                                                                                                ",
"  . . . . . . . . . . . . . . . . . . . + @ # $ % . . . . . . . . . . . . . . . . . . .         ",
"  . & * * * * * * * * * * * * * * * * * = - ; > , ' ) * * * * * * * * * * * * * * * ! . .       ",
"  . * ~ ~ ~ ~ ~ ~ ~ ~ ~ ~ ~ ~ ~ ~ ~ ~ { ] ^ / ( _ : < [ } ~ ~ ~ ~ ~ ~ ~ ~ ~ ~ ~ ~ | 1 2 .       ",
"  . * ~ ~ ~ ~ ~ ~ ~ ~ ~ ~ ~ ~ ~ ~ ~ ~ 3 4 5 5 6 7 8 9 0 a [ b ~ ~ ~ ~ ~ ~ ~ ~ ~ ~ | 1 2 .       ",
"  . * ~ ~ ~ ~ ~ ~ ~ ~ ~ ~ ~ c c c d e f g h ^ i j / k l m @ n [ o d d c p c d d d q 2 2 .       ",
"  . r d d d d d d d d d d d p p p p s t u k v w x y z / z A B / C [ D p p p p p p E F 2 .       ",
"  . G H H I I I I I I I I I I I I J h K L M v 7 N O P ; Q 0 R S T O U V I I I I I W X 2 .       ",
"  . Y I I Z Z Z Z Z Z Z Z Z Z Z Z = ` ^ k M 5 7  .j ..+.@.#.B ^ u ^ $.%.Z Z Z Z Z &.*.2 .       ",
"  . =.Z Z -.-.-.-.-.-.-.-.-.-.-.;.>.t _ ,.M B '.).+.,.f u A '.7 !.~.[ -.-.-.-.-.-.{.].2 .       ",
"  . ^.-.-././.(.*.*.*.*.*.*.*.*.% _.A :.,.<.M h [.}.O '.7 ] [.k M |.1.*.2.Z /././.3.4.2 .       ",
"  . 5././.6.6.*.. . . . . . . [ 4 9 :.B ,.<.7.,.A 8.9.y [.P k B j [ . . . 0.6.6.6.a.b.2 .       ",
"  . c.6.6.d.e.].. 3 f.f.f.f.f.g.h._ :.,.<.7.,.L A i.j.O ] / './ k.l.m.n.. 5.d.d.e.o.p.2 .       ",
"  . q.e.e.e.e.4.. r.s.t.t.t.n.i u.@ v.0 0 j j w.x.y.z.> A.x x B.C.t.t.D.. c.e.e.e.o.E.2 .       ",
"  . F.e.e.G.G.b.. H.I.I.I.I.J.K.L.y.M.k.L.8.N.O.P.O.Q.R.S.8.S.T.U.I.V.W.. c.G.G.G.X.E.2 .       ",
"  . Y.G.G.Z.Z.`.. . . . . . . . . . . . . . . . . . . . . . . . . . . . . F.Z.Z.Z. +.+2 .       ",
"  . ++Z.Z.@+@+#+$+F.F.F.F.F.F.F.F.F.F.F.F.F.F.F.F.F.Y.Y.Y.Y.Y.Y.Y.Y.Y.Y.Y.%+@+@+@+&+*+2 .       ",
"  . =+@+@+@+@+@+@+@+@+@+@+@+@+@+-+-+-+@+@+@+@+@+@+@+@+@+@+@+@+@+@+@+@+@+-+-+-+-+-+;+*+2 .       ",
"  . =+-+-+>+>+>+>+>+>+>+>+>+>+>+>+>+>+>+>+>+>+>+>+>+>+>+>+>+>+>+>+>+>+>+>+>+>+>+>+,+'+2 .       ",
"  . )+>+>+!+!+!+!+!+!+!+!+!+!+!+!+!+!+!+!+!+!+!+!+!+!+!+!+!+!+!+!+!+!+!+!+!+!+!+!+~+'+2 .       ",
"  . {+!+!+]+]+]+]+]+]+]+]+]+]+]+]+]+^+/+(+(+(+(+(+]+]+]+]+]+]+]+]+]+]+]+]+]+]+]+]+_+:+2 .       ",
"  . <+]+]+]+]+]+]+]+]+]+]+]+]+]+]+[+}+|+1+]+2+3+4+5+6+7+8+9+9+9+9+9+9+9+0+0+0+0+0+a+b+2 .       ",
"  . c+0+0+0+d+d+d+d+d+d+d+d+d+d+d+d+d+e+f+g+h+i+j+k+l+m+d+d+d+d+d+d+d+d+d+d+d+d+d+n+b+2 .       ",
"  . o+d+d+d+d+d+p+p+p+p+p+p+p+p+p+p+p+q+r+s+3+t+u+v+p+p+p+p+p+p+p+p+p+w+w+w+w+w+w+x+y+2 .       ",
"  . z+w+w+w+w+w+w+w+w+w+w+w+w+w+w+w+A+B+C+D+E+F+A+A+A+A+A+A+A+A+A+A+A+A+A+A+A+A+A+G+H+2 .       ",
"  . I+A+A+A+A+A+A+A+A+A+A+A+A+A+A+A+A+J+B+K+L+M+N+O+O+O+P+P+P+P+P+P+P+P+P+P+P+P+P+Q+R+2 .       ",
"  . S+P+T+T+T+T+U+U+U+U+U+U+U+U+U+U+U+U+V+W+X+Y+Z+`+ @T+T+T+U+U+U+U+U+U+U+U+.@.@.@+@@@2 .       ",
"  . #@.@.@.@.@$@$@$@$@$@$@.@.@.@.@.@.@.@%@.@.@.@.@&@*@.@=@=@=@=@=@=@=@=@=@=@=@=@=@-@;@2 .       ",
"  . >@=@=@=@=@=@=@=@,@,@,@,@,@,@,@'@)@)@!@~@,@,@,@,@,@,@,@,@,@,@,@,@,@,@,@,@,@,@,@{@]@2 .       ",
"  . ^@,@,@,@,@,@,@,@,@,@,@,@,@,@,@/@/@(@_@:@<@<@<@<@<@<@<@<@<@<@<@<@[@[@[@[@[@[@[@}@|@2 .       ",
"  . 1@[@[@[@[@[@[@[@[@[@[@[@[@[@[@2@3@3@3@4@[@[@[@[@[@[@[@[@[@5@5@5@5@5@5@5@5@5@5@6@7@2 .       ",
"  . 8@5@5@5@5@5@5@5@5@5@5@5@5@9@9@9@9@9@0@0@a@0@0@0@0@0@0@0@0@0@0@0@0@0@0@0@0@0@0@b@c@2 .       ",
"  . d@a@a@a@a@a@a@a@a@a@a@a@a@a@a@a@a@a@a@a@a@a@a@a@a@a@a@a@a@a@a@a@a@a@a@a@a@a@a@b@e@2 .       ",
"  . f@a@a@a@g@g@g@g@g@g@g@g@g@g@g@g@g@g@g@g@g@g@g@g@g@h@h@h@h@h@h@h@h@h@h@h@h@h@h@i@j@2 .       ",
"  . k@h@h@h@h@h@h@l@l@l@h@h@h@h@m@l@n@o@h@h@h@p@p@q@r@s@t@p@p@p@p@u@s@r@p@p@p@p@p@v@w@2 .       ",
"  . x@p@p@p@p@p@u@y@z@z@A@B@B@B@C@D@E@E@D@F@F@F@G@H@I@E@D@F@F@F@C@J@K@z@L@M@N@N@N@O@P@2 .       ",
"  . Q@N@N@N@N@N@R@E@[ [ E@S@N@N@T@E@[ [ E@U@N@N@T@E@[ [ E@V@N@N@W@E@[ [ E@X@Y@Y@Y@Z@`@2 .       ",
"  .  #Y@Y@Y@.#.#+#E@[ [ E@@#.#.###E@[ [ K@$#%#%#&#K@[ [ K@*#%#%#W@K@[ [ K@=#%#%#%#-#;#2 .       ",
"  . >#%#%#%#%#%#,#'#K@K@)#!#%#%#~#{#K@K@]#^#~#~#~#{#K@/#(#_#~#~#:#{#K@K@<#[#~#~#~#}#|#2 .       ",
"  . 1#~#~#2#2#2#2#3#4#5#6#2#2#2#2#7#8#9#0#a#a#a#a#a#b#c#d#e#e#e#e#e#f#g#h#e#e#i#i#j#k#2 .       ",
"  . l#i#i#i#i#i#i#i#i#i#i#i#i#i#i#i#i#i#i#i#i#i#i#i#i#i#i#m#m#m#m#m#m#m#m#m#m#m#m#n#o#2 .       ",
"  . p#m#m#m#m#m#m#m#m#m#q#q#q#q#q#q#q#q#q#q#q#q#q#q#q#q#q#q#q#q#q#q#q#q#q#q#q#q#q#r#s#2 .       ",
"  . t#q#q#q#q#q#u#u#u#u#u#u#u#u#u#u#u#u#u#u#u#u#u#u#u#u#u#u#u#u#u#u#u#u#v#v#v#v#v#w#x#2 .       ",
"  . y#w#w#w#w#w#w#w#w#w#w#w#w#w#w#w#w#w#w#w#w#w#w#w#w#w#w#w#w#w#w#w#w#w#w#w#w#w#w#z#x#2 .       ",
"  . A#B#C#x#x#x#x#x#x#x#x#x#x#x#x#x#x#x#x#x#x#x#x#x#x#x#x#x#x#x#x#x#x#x#x#x#x#x#x#x#D#2 .       ",
"    . . . . . . . . . . . . . . . . . . . . . . . . . . . . . . . . . . . . . . . . . . .       ",
"                                                                                                ",
"                                                                                                "};
