/* XPM */
static char * mail_save_xpm[] = {
"24 24 198 2",
"  	c None",
". 	c #000000",
"+ 	c #7B7B78",
"@ 	c #C7C7C3",
"# 	c #F1F0EB",
"$ 	c #BFBFBC",
"% 	c #5F5E5E",
"& 	c #E3E3DF",
"* 	c #F3F3EF",
"= 	c #F2F2EE",
"- 	c #F1F1EC",
"; 	c #F0EFEB",
"> 	c #D2D2CD",
", 	c #969592",
"' 	c #616060",
") 	c #B5B5B4",
"! 	c #F8F8F6",
"~ 	c #F7F7F5",
"{ 	c #F6F6F3",
"] 	c #F5F5F2",
"^ 	c #F4F4F0",
"/ 	c #F2F1ED",
"( 	c #F1F0EC",
"_ 	c #F0EFEA",
": 	c #EFEEE9",
"< 	c #4F4F4D",
"[ 	c #BDBCB8",
"} 	c #A7A6A3",
"| 	c #C6C6C4",
"1 	c #7C7C7B",
"2 	c #525251",
"3 	c #DBDBD9",
"4 	c #F5F4F1",
"5 	c #F4F3F0",
"6 	c #F3F2EE",
"7 	c #999894",
"8 	c #62625F",
"9 	c #BCBCB6",
"0 	c #EBE9E3",
"a 	c #838381",
"b 	c #D7D6D4",
"c 	c #A8A8A6",
"d 	c #515150",
"e 	c #7E7D7C",
"f 	c #DAD9D5",
"g 	c #EFEEE8",
"h 	c #EEEDE7",
"i 	c #4F4E4C",
"j 	c #BCBBB6",
"k 	c #EBE9E2",
"l 	c #EAE8E1",
"m 	c #F6F5F2",
"n 	c #F4F3EF",
"o 	c #B5B4B1",
"p 	c #9B9A97",
"q 	c #646361",
"r 	c #92918E",
"s 	c #EEEDE8",
"t 	c #EDECE6",
"u 	c #4E4E4C",
"v 	c #797976",
"w 	c #797874",
"x 	c #E9E8E1",
"y 	c #E8E7DF",
"z 	c #B4B3AF",
"A 	c #D0D0CD",
"B 	c #F2F2ED",
"C 	c #BFBEBA",
"D 	c #BEBDB9",
"E 	c #7A7A77",
"F 	c #979691",
"G 	c #EAE9E2",
"H 	c #959590",
"I 	c #787773",
"J 	c #B8B7B0",
"K 	c #E6E4DC",
"L 	c #A9A9A6",
"M 	c #626260",
"N 	c #ECEBE4",
"O 	c #EBEAE3",
"P 	c #E9E7E0",
"Q 	c #E8E6DF",
"R 	c #E7E5DD",
"S 	c #777671",
"T 	c #93918C",
"U 	c #BEBDB8",
"V 	c #989793",
"W 	c #ECEAE4",
"X 	c #E8E6DE",
"Y 	c #E6E4DB",
"Z 	c #E4E3DA",
"` 	c #75746F",
" .	c #91908A",
"..	c #EEECE7",
"+.	c #62615F",
"@.	c #EBEAE4",
"#.	c #747370",
"$.	c #73736F",
"%.	c #73726E",
"&.	c #72726D",
"*.	c #72716D",
"=.	c #71706C",
"-.	c #656561",
";.	c #51504E",
">.	c #B6B5B2",
",.	c #BCBCB7",
"'.	c #ACC9E2",
").	c #A98A87",
"!.	c #E8A496",
"~.	c #E59D90",
"{.	c #E29E92",
"].	c #DD988C",
"^.	c #DC968A",
"/.	c #D59188",
"(.	c #84919E",
"_.	c #3E4C57",
":.	c #ECEBE5",
"<.	c #61615E",
"[.	c #E9E8E0",
"}.	c #73726F",
"|.	c #A0BED5",
"1.	c #A89697",
"2.	c #E5BDB9",
"3.	c #E2BAB5",
"4.	c #E3B8B4",
"5.	c #E3B8B3",
"6.	c #DFB4B0",
"7.	c #788694",
"8.	c #2A3742",
"9.	c #797875",
"0.	c #969590",
"a.	c #CFCEC8",
"b.	c #AEADA8",
"c.	c #9FBBD3",
"d.	c #ADADAD",
"e.	c #E6E6E6",
"f.	c #E2E2E2",
"g.	c #7C8A96",
"h.	c #26333C",
"i.	c #585754",
"j.	c #7B7A76",
"k.	c #9BB8D0",
"l.	c #B5B5B5",
"m.	c #FFFFFF",
"n.	c #7D8B97",
"o.	c #232E37",
"p.	c #98B8CD",
"q.	c #ADA7A7",
"r.	c #E4E4E4",
"s.	c #292F33",
"t.	c #90B2CA",
"u.	c #7E92A0",
"v.	c #798894",
"w.	c #768694",
"x.	c #7B8995",
"y.	c #7A8894",
"z.	c #8098AA",
"A.	c #1C272E",
"B.	c #8EACC7",
"C.	c #668196",
"D.	c #7E8181",
"E.	c #A0A5A8",
"F.	c #A4AAAE",
"G.	c #989D9F",
"H.	c #838687",
"I.	c #455763",
"J.	c #86A2BA",
"K.	c #1A2428",
"L.	c #8AABC4",
"M.	c #586A78",
"N.	c #E5E4E0",
"O.	c #5C5A52",
"P.	c #92908A",
"Q.	c #C2BFB8",
"R.	c #CBC8C3",
"S.	c #4A5D6C",
"T.	c #839DB0",
"U.	c #181F24",
"V.	c #7C98AE",
"W.	c #50616F",
"X.	c #DEDCD8",
"Y.	c #4F4B44",
"Z.	c #89857E",
"`.	c #D0CEC8",
" +	c #E7E6E4",
".+	c #485A66",
"++	c #7896AB",
"@+	c #1C1F21",
"#+	c #1E2428",
"$+	c #2A3238",
"%+	c #595754",
"&+	c #615F5C",
"*+	c #696865",
"=+	c #747372",
"-+	c #656462",
";+	c #222A31",
">+	c #435562",
",+	c #121416",
"                                                ",
"                                                ",
"                          . . . .               ",
"                . . . . . + @ # $ .             ",
"      . . . . . % $ & * = - ; > , .             ",
"    . ' ) ! ~ { ] ^ * / ( _ : < [ } .           ",
"    . | 1 2 3 4 5 6 / # _ : 7 8 9 0 .           ",
"    . a b c d e f / # _ g h i j k l .           ",
"      . m 4 n o p q r s t u v w x y z .         ",
"      . A * B ( ; C D E u F G H I J K .         ",
"      . L / ( _ : M t N O l P Q R S T .         ",
"        . # _ g U V W 0 l P X R Y Z `  ..       ",
"        . ; g ..+.@.G #.$.%.&.*.=.-.;.. .       ",
"        . >.t ,.F G #.'.).!.~.{.].^./.(._.      ",
"          . :.<.G [.}.|.1.2.2.3.4.5.6.7.8.      ",
"          . 9.0.a.b.. c.d.e.e.e.e.e.f.g.h.      ",
"          . i.j.. . . k.l.m.m.m.m.m.m.n.o.      ",
"            . .     . p.q.e.e.e.e.e.r.g.s.      ",
"                    . t.u.g.v.w.x.g.y.z.A.      ",
"                    . B.C.D.E.F.G.H.I.J.K.      ",
"                    . L.M.N.O.P.Q.R.S.T.U.      ",
"                    . V.W.X.Y.Z.`. +.+++@+      ",
"                      #+$+%+&+*+=+-+;+>+,+      ",
"                                                "};
