/* XPM */
static char * multipart_xpm[] = {
"16 16 85 1",
" 	c None",
".	c #40433C",
"+	c #4B4E46",
"@	c #96A87F",
"#	c #3F3233",
"$	c #303924",
"%	c #2D3721",
"&	c #636463",
"*	c #858785",
"=	c #313131",
"-	c #27231C",
";	c #79525B",
">	c #B7647C",
",	c #675859",
"'	c #4D4D4A",
")	c #BEC1BE",
"!	c #ADB0AD",
"~	c #5B5D5B",
"{	c #33312A",
"]	c #211D18",
"^	c #A59874",
"/	c #C1B287",
"(	c #957762",
"_	c #92444F",
":	c #AF5068",
"<	c #6D5557",
"[	c #666764",
"}	c #6C6960",
"|	c #6C6353",
"1	c #8D7F68",
"2	c #978770",
"3	c #756C52",
"4	c #D3C393",
"5	c #D4C494",
"6	c #CFBF91",
"7	c #8F7D63",
"8	c #6B5B4E",
"9	c #90816B",
"0	c #9C8C74",
"a	c #746856",
"b	c #9E926E",
"c	c #D0C091",
"d	c #7B7358",
"e	c #50493C",
"f	c #8C7D68",
"g	c #988871",
"h	c #665C4C",
"i	c #1F1B17",
"j	c #6A634B",
"k	c #C0B186",
"l	c #847A5D",
"m	c #92886A",
"n	c #706653",
"o	c #4C473C",
"p	c #786C59",
"q	c #413E35",
"r	c #403F38",
"s	c #5C5643",
"t	c #706953",
"u	c #756D54",
"v	c #67614D",
"w	c #AA9E7A",
"x	c #7B6F5A",
"y	c #635C4E",
"z	c #5A5346",
"A	c #424138",
"B	c #4F4D43",
"C	c #7A6F5D",
"D	c #6F674F",
"E	c #9C9271",
"F	c #91896C",
"G	c #C2B488",
"H	c #716654",
"I	c #847864",
"J	c #44443C",
"K	c #6A6354",
"L	c #706554",
"M	c #383229",
"N	c #766D53",
"O	c #C9BA8C",
"P	c #796D59",
"Q	c #94856E",
"R	c #4F483C",
"S	c #4B4534",
"T	c #474034",
"                ",
"                ",
"                ",
"     .+         ",
"      @         ",
"     #$%&*=     ",
"   -;>,')!~{]   ",
"  ^/(_:<[}|12   ",
" 345567890000a  ",
" b455cdef00ghi  ",
"  jk4lmno2pqr   ",
"  stuvwxyzABC   ",
"   DEFGHIJKLM   ",
"     NOPQR      ",
"      ST        ",
"                "};
