/* XPM */
static char * text_xpm[] = {
"16 16 70 1",
" 	c None",
".	c #444444",
"+	c #222222",
"@	c #272726",
"#	c #4D4D4C",
"$	c #7F7F7F",
"%	c #A6A6A5",
"&	c #919191",
"*	c #6A6A6A",
"=	c #424242",
"-	c #9F9F9F",
";	c #9B9B9B",
">	c #B1B1B1",
",	c #9B9B9A",
"'	c #ACACAB",
")	c #A8A8A8",
"!	c #909090",
"~	c #777777",
"{	c #858585",
"]	c #979797",
"^	c #A9A9A8",
"/	c #A5A5A4",
"(	c #7D7D7C",
"_	c #616161",
":	c #6C6C6C",
"<	c #7B7B7B",
"[	c #999999",
"}	c #8F8F8E",
"|	c #9C9C9B",
"1	c #ADADAC",
"2	c #7D7D7D",
"3	c #A0A0A0",
"4	c #9E9E9E",
"5	c #A4A4A4",
"6	c #A0A09F",
"7	c #B2B2B2",
"8	c #ABABAB",
"9	c #797979",
"0	c #525252",
"a	c #C5C5C5",
"b	c #A9A9A9",
"c	c #C8C8C8",
"d	c #BBBBBB",
"e	c #AEAEAE",
"f	c #BDBDBC",
"g	c #2E2E2E",
"h	c #272727",
"i	c #ECECEC",
"j	c #DADADA",
"k	c #D1D1D1",
"l	c #C4C4C4",
"m	c #CECECE",
"n	c #CACACA",
"o	c #CDCDCC",
"p	c #A4A4A3",
"q	c #E9E9E9",
"r	c #D4D4D4",
"s	c #E0E0E0",
"t	c #D5D5D5",
"u	c #767676",
"v	c #121212",
"w	c #949494",
"x	c #DBDBDB",
"y	c #F4F4F4",
"z	c #D0D0D0",
"A	c #717171",
"B	c #000000",
"C	c #373737",
"D	c #AAAAAA",
"E	c #484848",
"                ",
"                ",
"        .+      ",
"    @#$%&*      ",
"   =-;>,')      ",
"   !~{]^/(_     ",
"   :<~[}|,1     ",
"   2345678>9    ",
"   0abc7defag   ",
"   hijklmncop   ",
"    jqrcjstuv   ",
"    wxryzAvB    ",
"    CyDEB       ",
"     B          ",
"                ",
"                "};
