/* XPM */
static char * ui_xpm[] = {
"48 48 674 2",
"  	c None",
". 	c #FFFFFF",
"+ 	c #FEFEFE",
"@ 	c #8F8796",
"# 	c #FBFBFB",
"$ 	c #CFCFCF",
"% 	c #DCDCDC",
"& 	c #F7F7F7",
"* 	c #E3E3E3",
"= 	c #524C56",
"- 	c #403843",
"; 	c #D2D2D2",
"> 	c #F2E3E7",
", 	c #DCBEC5",
"' 	c #D0D0D0",
") 	c #C4C4C4",
"! 	c #F3F3F3",
"~ 	c #716972",
"{ 	c #847B8C",
"] 	c #B1B2B0",
"^ 	c #8E8E8E",
"/ 	c #5A565B",
"( 	c #464048",
"_ 	c #5D5C5B",
": 	c #888886",
"< 	c #FEFBFC",
"[ 	c #CB8099",
"} 	c #DAA2B6",
"| 	c #A8888D",
"1 	c #EBE3E3",
"2 	c #8A848B",
"3 	c #342B35",
"4 	c #564A60",
"5 	c #A29BA7",
"6 	c #FAFAFB",
"7 	c #F7F7F8",
"8 	c #F3F2F4",
"9 	c #FCFCFC",
"0 	c #E8E8E8",
"a 	c #484847",
"b 	c #AAA9AB",
"c 	c #2C2530",
"d 	c #403644",
"e 	c #B8B6B9",
"f 	c #595A57",
"g 	c #D4D4D4",
"h 	c #F9F9F9",
"i 	c #F7EEF0",
"j 	c #D7A8B6",
"k 	c #C77C95",
"l 	c #BF6B86",
"m 	c #DFBFC6",
"n 	c #FBF9F9",
"o 	c #AAA6AB",
"p 	c #372E38",
"q 	c #BBB5BF",
"r 	c #ECEBED",
"s 	c #EFEDEF",
"t 	c #E0DEE2",
"u 	c #F5F5F5",
"v 	c #959595",
"w 	c #353535",
"x 	c #8A898B",
"y 	c #2A232D",
"z 	c #3E3543",
"A 	c #A8A6A9",
"B 	c #3F3F3D",
"C 	c #696969",
"D 	c #E6E6E6",
"E 	c #F7F0F2",
"F 	c #ECD4DB",
"G 	c #FDFBFC",
"H 	c #F4E7EB",
"I 	c #DDBCC4",
"J 	c #F6F1F1",
"K 	c #C7C4C7",
"L 	c #443A44",
"M 	c #594C62",
"N 	c #C9C5CC",
"O 	c #EEEDF0",
"P 	c #D8D8D8",
"Q 	c #A7A7A7",
"R 	c #A4A2A4",
"S 	c #29222B",
"T 	c #3F3441",
"U 	c #ADAAAE",
"V 	c #A6A6A6",
"W 	c #CCCCCC",
"X 	c #D8D6D8",
"Y 	c #554C55",
"Z 	c #120F12",
"` 	c #65596E",
" .	c #D5D2D8",
"..	c #F8F8F8",
"+.	c #F4F4F4",
"@.	c #EBEBEB",
"#.	c #EAEAEA",
"$.	c #C2C0C2",
"%.	c #3D3340",
"&.	c #B9B6BA",
"*.	c #C2C2C2",
"=.	c #CECECE",
"-.	c #E1E1E1",
";.	c #F2F2F2",
">.	c #F6F6F6",
",.	c #E7E6E7",
"'.	c #645C64",
").	c #1F1A1F",
"!.	c #706577",
"~.	c #DCDADE",
"{.	c #E5E5E5",
"].	c #E7E7E7",
"^.	c #F1F1F1",
"/.	c #D6D6D6",
"(.	c #BCBDBC",
"_.	c #9B9B9B",
":.	c #4B4A4A",
"<.	c #51504F",
"[.	c #A09F9F",
"}.	c #FAFAFA",
"|.	c #EDEDED",
"1.	c #EEEEEE",
"2.	c #7C767C",
"3.	c #2A2229",
"4.	c #7C7283",
"5.	c #BBBBBB",
"6.	c #E9E9E9",
"7.	c #CECECD",
"8.	c #D0D1D0",
"9.	c #B8B8B7",
"0.	c #5D595E",
"a.	c #49444A",
"b.	c #424142",
"c.	c #282728",
"d.	c #C3C3C3",
"e.	c #FFFEFF",
"f.	c #ECECEC",
"g.	c #E0E0E0",
"h.	c #9A949A",
"i.	c #2F262E",
"j.	c #8B8290",
"k.	c #FBFAFB",
"l.	c #C5C5C5",
"m.	c #A5A5A4",
"n.	c #C4C4C3",
"o.	c #9C999D",
"p.	c #2A232B",
"q.	c #3E3440",
"r.	c #A29CA3",
"s.	c #777576",
"t.	c #696869",
"u.	c #EFEFEF",
"v.	c #D1D1D1",
"w.	c #E2E2E2",
"x.	c #C1BDC0",
"y.	c #332932",
"z.	c #56495E",
"A.	c #8F8694",
"B.	c #DFDFDF",
"C.	c #BFBFBF",
"D.	c #3C3D3C",
"E.	c #888888",
"F.	c #928F93",
"G.	c #2A232C",
"H.	c #3E3441",
"I.	c #979198",
"J.	c #676666",
"K.	c #242424",
"L.	c #F8F8F9",
"M.	c #F9F9FA",
"N.	c #DEDBDD",
"O.	c #362C35",
"P.	c #161215",
"Q.	c #38313D",
"R.	c #B4AEB7",
"S.	c #E2E0E4",
"T.	c #F2F1F3",
"U.	c #EBEAED",
"V.	c #F1F0F2",
"W.	c #F6F6F7",
"X.	c #B0AFAF",
"Y.	c #868387",
"Z.	c #3F3340",
"`.	c #8A838B",
" +	c #A0A0A0",
".+	c #848484",
"++	c #DDDDDD",
"@+	c #F2F2F3",
"#+	c #F4F4F5",
"$+	c #433942",
"%+	c #1B161A",
"&+	c #A1A1A1",
"*+	c #474747",
"=+	c #4F4F4F",
"-+	c #7B7A7D",
";+	c #F0EFF1",
">+	c #E0DDE2",
",+	c #EAE9EC",
"'+	c #CECAD1",
")+	c #F1F0F1",
"!+	c #E4E2E6",
"~+	c #FDFDFD",
"{+	c #706B70",
"]+	c #2D262F",
"^+	c #423643",
"/+	c #766D77",
"(+	c #ADADAD",
"_+	c #C9C9C9",
":+	c #F5F5F6",
"<+	c #F7F6F7",
"[+	c #625A61",
"}+	c #1E181C",
"|+	c #737373",
"1+	c #F0F0F0",
"2+	c #CDCDCD",
"3+	c #5B5B5B",
"4+	c #444444",
"5+	c #7C7A7A",
"6+	c #A9A4A4",
"7+	c #A19894",
"8+	c #968B85",
"9+	c #8D827C",
"0+	c #C0BDBB",
"a+	c #716C71",
"b+	c #2E2630",
"c+	c #817883",
"d+	c #888187",
"e+	c #292228",
"f+	c #574D45",
"g+	c #93877C",
"h+	c #A09892",
"i+	c #ADA59F",
"j+	c #BAB1A8",
"k+	c #B4AAA0",
"l+	c #B3A89D",
"m+	c #605A56",
"n+	c #ABABAB",
"o+	c #4E4E4E",
"p+	c #303030",
"q+	c #B9A89D",
"r+	c #C6B2A4",
"s+	c #C1AB9B",
"t+	c #C6AC9B",
"u+	c #B99A86",
"v+	c #7C6C67",
"w+	c #8F8B91",
"x+	c #9E9AA0",
"y+	c #ABA6AD",
"z+	c #9B949C",
"A+	c #817982",
"B+	c #4A414A",
"C+	c #453946",
"D+	c #645866",
"E+	c #887F89",
"F+	c #948C95",
"G+	c #ADA8AE",
"H+	c #A9A4A9",
"I+	c #A8A3A8",
"J+	c #B6B2B6",
"K+	c #D3D1D3",
"L+	c #D4D1D4",
"M+	c #E3E1E2",
"N+	c #AEAAAD",
"O+	c #32292F",
"P+	c #776E66",
"Q+	c #EAE0D6",
"R+	c #D5BCA5",
"S+	c #D5BDA7",
"T+	c #D3BAA2",
"U+	c #CDB297",
"V+	c #B29781",
"W+	c #5F524A",
"X+	c #919191",
"Y+	c #4A4A4A",
"Z+	c #373737",
"`+	c #9D7E6A",
" @	c #B9967C",
".@	c #B6937A",
"+@	c #AE8A72",
"@@	c #A47E66",
"#@	c #533F37",
"$@	c #29232B",
"%@	c #312932",
"&@	c #342C35",
"*@	c #342C36",
"=@	c #352D37",
"-@	c #372E39",
";@	c #3B303C",
">@	c #453947",
",@	c #4D404E",
"'@	c #463A47",
")@	c #413542",
"!@	c #3F3440",
"~@	c #382F38",
"{@	c #362D36",
"]@	c #352B35",
"^@	c #372D36",
"/@	c #382E36",
"(@	c #372D35",
"_@	c #6C655F",
":@	c #E6DED5",
"<@	c #CEB398",
"[@	c #C09D7C",
"}@	c #DDCAB8",
"|@	c #A18A76",
"1@	c #5B5756",
"2@	c #DAD9D9",
"3@	c #B3B3B3",
"4@	c #585858",
"5@	c #212121",
"6@	c #6B6966",
"7@	c #C7C7C7",
"8@	c #7F604F",
"9@	c #6A5144",
"0@	c #0C0B0C",
"a@	c #0D0B0D",
"b@	c #080608",
"c@	c #171317",
"d@	c #1B171C",
"e@	c #1C171D",
"f@	c #1C181D",
"g@	c #09080A",
"h@	c #110E11",
"i@	c #100D10",
"j@	c #181317",
"k@	c #191418",
"l@	c #181417",
"m@	c #181418",
"n@	c #1C171B",
"o@	c #1E181D",
"p@	c #645C57",
"q@	c #DBD1C8",
"r@	c #CFB49B",
"s@	c #BF9C7B",
"t@	c #FEFEFD",
"u@	c #8B8B8B",
"v@	c #B5B5B5",
"w@	c #BDBDBD",
"x@	c #B4B4B4",
"y@	c #404040",
"z@	c #2D2D2D",
"A@	c #D5D5D5",
"B@	c #5D483C",
"C@	c #7E5F4E",
"D@	c #0F0D0D",
"E@	c #4D4742",
"F@	c #CABDB1",
"G@	c #D4BCA6",
"H@	c #BE987A",
"I@	c #F8F4F1",
"J@	c #565656",
"K@	c #5A5A5A",
"L@	c #606060",
"M@	c #646464",
"N@	c #676767",
"O@	c #6E6E6E",
"P@	c #4A3D36",
"Q@	c #876654",
"R@	c #231C18",
"S@	c #BEAFA4",
"T@	c #D5BDAA",
"U@	c #BC9778",
"V@	c #B1B1B1",
"W@	c #514842",
"X@	c #41332B",
"Y@	c #0B0B0A",
"Z@	c #B4A59A",
"`@	c #DBC8B8",
" #	c #BA9477",
".#	c #EDE4DE",
"+#	c #E4E4E4",
"@#	c #DEDEDE",
"##	c #EDEBEB",
"$#	c #F4E4E4",
"%#	c #F6F5F5",
"&#	c #77706C",
"*#	c #694F41",
"=#	c #5D463B",
"-#	c #100F0E",
";#	c #AA9B8F",
">#	c #DECCBE",
",#	c #EBDFD6",
"'#	c #D3D3D3",
")#	c #B6B6B6",
"!#	c #C97C7C",
"~#	c #DC8D8D",
"{#	c #ADAAA7",
"]#	c #624A3F",
"^#	c #6E5144",
"/#	c #1A1614",
"(#	c #000000",
"_#	c #968A7F",
":#	c #E2D3C8",
"<#	c #BD9B81",
"[#	c #E0D0C4",
"}#	c #C8C8C8",
"|#	c #9F9F9F",
"1#	c #E9A8A8",
"2#	c #C23232",
"3#	c #E8CFCF",
"4#	c #D8D8D7",
"5#	c #604D44",
"6#	c #826150",
"7#	c #2D241F",
"8#	c #F9F1D5",
"9#	c #F9F2D8",
"0#	c #FAF3DB",
"a#	c #EBE5CE",
"b#	c #252114",
"c#	c #7B706A",
"d#	c #E3D4C9",
"e#	c #BE9C82",
"f#	c #D6C0B1",
"g#	c #DED4D4",
"h#	c #CBCBCB",
"i#	c #EDD1D1",
"j#	c #BE2323",
"k#	c #ECBCBC",
"l#	c #F4F2F2",
"m#	c #665851",
"n#	c #826151",
"o#	c #382C25",
"p#	c #52492B",
"q#	c #F9F2D9",
"r#	c #F0DC95",
"s#	c #F2DF9E",
"t#	c #CFC08A",
"u#	c #625A55",
"v#	c #E6D9D0",
"w#	c #C4A58F",
"x#	c #C9A492",
"y#	c #CC4B4A",
"z#	c #C76666",
"A#	c #B6B4B4",
"B#	c #C63B3B",
"C#	c #E8A6A6",
"D#	c #898582",
"E#	c #7B5D4D",
"F#	c #5A4439",
"G#	c #0A0A0A",
"H#	c #3E3821",
"I#	c #FAF3DC",
"J#	c #F1DF9C",
"K#	c #F2E0A0",
"L#	c #CFC088",
"M#	c #47413E",
"N#	c #E4D6CD",
"O#	c #C2A48E",
"P#	c #C9AD9A",
"Q#	c #E8B5B3",
"R#	c #B21C1C",
"S#	c #AC5454",
"T#	c #C63434",
"U#	c #FAEDED",
"V#	c #6B5044",
"W#	c #7A5B4B",
"X#	c #0D0C0B",
"Y#	c #F1ECDD",
"Z#	c #51482B",
"`#	c #211E12",
" $	c #F9F2D7",
".$	c #CFC089",
"+$	c #302C2B",
"@$	c #E6D9D1",
"#$	c #C7AC98",
"$$	c #C2A58F",
"%$	c #F9F7F4",
"&$	c #BB4F4F",
"*$	c #B41212",
"=$	c #C18383",
"-$	c #CAC9C9",
";$	c #DADADA",
">$	c #50413A",
",$	c #856252",
"'$	c #1B1615",
")$	c #FBF6E4",
"!$	c #F8F0D0",
"~$	c #443D24",
"{$	c #9E9166",
"]$	c #FBF7E8",
"^$	c #CFC2B9",
"/$	c #C6AA96",
"($	c #BC9B83",
"_$	c #F7F3EF",
":$	c #C6B5B5",
"<$	c #AFADAD",
"[$	c #8D857F",
"}$	c #765749",
"|$	c #382B26",
"1$	c #FAF5E1",
"2$	c #F4E5AF",
"3$	c #F8EFCF",
"4$	c #6D623A",
"5$	c #D3CBB5",
"6$	c #FAF4DF",
"7$	c #BDAEA4",
"8$	c #D3BDAE",
"9$	c #AF8970",
"0$	c #F1EBE6",
"a$	c #B8B8B8",
"b$	c #E2E1E1",
"c$	c #6A564E",
"d$	c #503C34",
"e$	c #0D0D0C",
"f$	c #262215",
"g$	c #F3E4AC",
"h$	c #FCF8EC",
"i$	c #F7ECC8",
"j$	c #F1DE9B",
"k$	c #CFBF87",
"l$	c #B1A475",
"m$	c #A09187",
"n$	c #CFB8AA",
"o$	c #AA826A",
"p$	c #EBE2DC",
"q$	c #938B87",
"r$	c #553F36",
"s$	c #151211",
"t$	c #FBF6E7",
"u$	c #F4E6B2",
"v$	c #F2E0A2",
"w$	c #F0DC96",
"x$	c #CEC088",
"y$	c #988C62",
"z$	c #83736B",
"A$	c #D5C1B5",
"B$	c #A88169",
"C$	c #DBCBC0",
"D$	c #5C5A58",
"E$	c #47362F",
"F$	c #231C19",
"G$	c #F5E8B8",
"H$	c #F5E6B4",
"I$	c #CFC28F",
"J$	c #CEBD82",
"K$	c #B0A372",
"L$	c #9E9269",
"M$	c #675A52",
"N$	c #D3BEB2",
"O$	c #A47B65",
"P$	c #C9B1A4",
"Q$	c #D7D7D7",
"R$	c #9A9A9A",
"S$	c #727272",
"T$	c #413F3E",
"U$	c #2B2827",
"V$	c #272321",
"W$	c #27211E",
"X$	c #322824",
"Y$	c #3E302A",
"Z$	c #4A3830",
"`$	c #65493F",
" %	c #302521",
".%	c #F6F4EB",
"+%	c #F5E7B6",
"@%	c #F4E7B5",
"#%	c #F4E4AD",
"$%	c #B0A373",
"%%	c #5C4F48",
"&%	c #D2BFB3",
"*%	c #A07862",
"=%	c #8A6A57",
"-%	c #706660",
";%	c #564B46",
">%	c #493C36",
",%	c #4A3B34",
"'%	c #4E3C34",
")%	c #4D3B33",
"!%	c #543F36",
"~%	c #513E35",
"{%	c #4F3B33",
"]%	c #553E36",
"^%	c #5C453A",
"/%	c #664B3F",
"(%	c #6E5045",
"_%	c #78574A",
":%	c #513C35",
"<%	c #0B0B0B",
"[%	c #272315",
"}%	c #F8F1D4",
"|%	c #F5E6B5",
"1%	c #D0C496",
"2%	c #4D423D",
"3%	c #C2AFA4",
"4%	c #A27C66",
"5%	c #98735F",
"6%	c #7C5C4D",
"7%	c #7C5D4D",
"8%	c #7F5F4F",
"9%	c #77584A",
"0%	c #785A4A",
"a%	c #775849",
"b%	c #765649",
"c%	c #745548",
"d%	c #735447",
"e%	c #745547",
"f%	c #78574B",
"g%	c #7F5B4E",
"h%	c #725247",
"i%	c #FAF4E0",
"j%	c #F3E4AD",
"k%	c #B3A982",
"l%	c #463C37",
"m%	c #B49F92",
"n%	c #AC8974",
"o%	c #9F7762",
"p%	c #9C7460",
"q%	c #976F5C",
"r%	c #926C5A",
"s%	c #8E6A57",
"t%	c #8A6655",
"u%	c #876254",
"v%	c #7E5C4D",
"w%	c #664B40",
"x%	c #64493D",
"y%	c #563F36",
"z%	c #4F3A32",
"A%	c #3E2F28",
"B%	c #342723",
"C%	c #231B19",
"D%	c #120F0F",
"E%	c #F7ECC5",
"F%	c #F3E3AB",
"G%	c #F4E7B4",
"H%	c #F4E7B6",
"I%	c #6E633B",
"J%	c #38302B",
"K%	c #A08677",
"L%	c #AB8673",
"M%	c #9D7661",
"N%	c #946F5C",
"O%	c #7C5C4E",
"P%	c #6C5045",
"Q%	c #564038",
"R%	c #42332C",
"S%	c #372A24",
"T%	c #29201D",
"U%	c #1E1916",
"V%	c #181412",
"W%	c #110F0E",
"X%	c #0F0E0D",
"Y%	c #0E0D0C",
"Z%	c #0B0A0A",
"`%	c #F9F5E8",
" &	c #F0DA8F",
".&	c #F2E1A4",
"+&	c #D2C69B",
"@&	c #614D44",
"#&	c #5B473D",
"$&	c #28211D",
"%&	c #1F1A17",
"&&	c #161311",
"*&	c #12100F",
"=&	c #F5E8B9",
"-&	c #EFD888",
";&	c #F4E6B1",
">&	c #B4AA85",
",&	c #A09056",
"'&	c #A2935B",
")&	c #F1DD97",
"!&	c #574E2F",
"~&	c #EED680",
"{&	c #564E2E",
"]&	c #8A7C4A",
"^&	c #B9AA74",
"/&	c #C8BB8D",
"(&	c #14120B",
"_&	c #110F09",
":&	c #AE9E67",
"<&	c #B0A47C",
"[&	c #B2A05F",
"}&	c #655B36",
"|&	c #CCB973",
"1&	c #51492B",
"                                                                                                ",
"                                                                                                ",
"                                    . . . . . . . . . .     . . + + . . . . . .                 ",
"                                  @ # $ % . . . . . & * = - ; & . . . > , ' ) ! ~               ",
"                                  { # $ $ . . . . . ] ^ / ( _ : . . . < [ } | 1 2 3             ",
"                                4 5 . 6 7 8 . . 9 0 a b c d e f g h i j k l m n o p             ",
"                                4 q 9 r s t . . u v w x y z A B C D E F G H I J K L             ",
"                                M N 7 O . . . . 9 P Q R S T U V W ! . . . . . . X Y Z           ",
"                                `  .. # ..+.@.D D 0 #.$.S %.&.*.=.-.D #.;.+.>...,.'.).          ",
"                                !.~.{.].0 @.^.... + /.(._.:.<.[.9 . + }.! |.1.1.+.2.3.          ",
"                                4.r 5.6.. . . . . 7.8.9.0.a.b.c.d.. e.e.. . f.g.|.h.i.          ",
"                                j.k.l.P . . . . 9 m.n.o.p.q.r.s.t.u.# # . . +.v.w.x.y.          ",
"                              z.A.. B.6.. . . . C.D.E.F.G.H.I.J.K.C.L.M.. . . #.. N.O.P.        ",
"                              Q.R.+ S.T.U.V.W.+ u.X.*.Y.G.Z.`. +.+++@+#+. . . . . . $+%+        ",
"                      ^ ++&+*+=+-+;+>+,+'+)+!+~+~+u f.{+]+^+/+(+_+f.:+<+. . . . . . [+}+        ",
"                      |+1+2+3+4+5+6+7+8+9+0+! h + + ~+a+b+^+c+++f.# . . . . . . . . d+e+        ",
"        f+g+h+i+j+k+l+m+-.n+o+p+q+r+s+t+u+v+w+x+y+z+A+B+3 C+D+E+F+G+H+I+J+K+K+L+M+. N+O+        ",
"        P+Q+R+S+T+U+V+W+) X+Y+Z+`+ @.@+@@@#@$@%@&@*@=@-@;@>@,@'@)@!@~@{@]@^@^@^@^@/@(@(@        ",
"        _@:@<@[@}@|@1@2@^.D 3@4@5@6@~+7@8@9@0@a@b@    c@d@e@f@a@g@h@i@i@h@j@k@l@c@m@n@o@        ",
"        p@q@r@s@t@u@|+v@w@x@C y@z@z@|.A@B@C@D@                                                  ",
"        E@F@G@H@I@}.J@K@L@M@M@N@O@n+9 +.P@Q@R@                                                  ",
"          S@T@U@I@+.V@X+|.].@.1+;.9 . . W@C@X@Y@                                                ",
"          Z@`@ #.#+#>.@#h ! ##$#%#+#. . &#*#=#-#                                                ",
"          ;#># #,#% + ; '#)#!#~#|.g.. . {#]#^#/#                            (#(#                ",
"          _#:#<#[#$ }#|#+ 1#2#3#* u.. . 4#5#6#7#                        (#8#9#0#a#b#            ",
"          c#d#e#f#g#1.h#i#j#k#l#* u.. . @.m#n#o#                          p#q#r#s#t#b#          ",
"          u#v#w#x#y#z#A#B#C#. . . . . . . D#E#F#G#                          H#I#J#K#L#(#        ",
"          M#N#O#P#Q#R#S#T#U#. . +#v.g.+ . 3@V#W#X#                (#Y#Z#      `# $K#.$`#        ",
"          +$@$#$$$%$&$*$=$-$v@;$9 . . . . }.>$,$'$G#              (#)$!$~$  (#{$]$s#t#`#        ",
"            ^$/$($_$:$S#<$+ >.>.. ! }#1.. . [$}$|$G#                1$2$3$4$5$6$0#J#L#`#        ",
"            7$8$9$0$0 >.' h @#a$>.. + . . . b$c$d$e$                f$)$g$J#h$i$j$k$l$(#        ",
"            m$n$o$p$+.>.].^.. . . . . . . . ~+q$r$s$                (#t$u$v$w$J#x$y$`#          ",
"            z$A$B$C$;.; '#>.. . 9 u.++g _+^ D$+$E$F$G#              `#G$H$I$J$K$L$`#            ",
"            M$N$O$P$9 #.Q$3@R$S$K@T$U$V$W$X$Y$Z$`$ %G#              .%+%@%#%$%`#(#              ",
"            %%&%*%=%-%;%>%,%'%)%!%~%{%d$]%^%/%(%_%:%<%            [%}%|%+%1%H#(#                ",
"            2%3%4%5%Q@6%7%8%6%9%0%a%b%c%d%e%_%f%g%h%D@            i%j%G$+%k%(#                  ",
"            l%m%n%o%p%q%r%s%t%u%v%d%w%x%y%z%A%B%C%s$D%          `#E%F%G%H%I%(#                  ",
"            J%K%L%o%M%N%O%P%Q%R%S%T%U%V%W%X%Y%X#Z%G#G#          `% &.&u$+&`#(#                  ",
"              @&#&R%$&%&&&*&e$<%G#G#G#G#G#G#G#G#G#            `#=&-&s#;&>&(#                    ",
"                  X%<%G#G#G#G#G#G#G#G#G#G#                  (#I%,&'&)&2$!&(#                    ",
"                                                            `#~&{&]&^&/&`#(#                    ",
"                                                            `#~&(&_&:&<&(#                      ",
"                                                            `#~&[&}&|&1&(#                      ",
"                                                            (#H#~&~&H#(#                        ",
"                                                              (#(#(#                            ",
"                                                                                                ",
"                                                                                                ",
"                                                                                                "};
